<?xml version="1.0" standalone="no"?>
<!DOCTYPE svg PUBLIC "-//W3C//DTD SVG 1.1//EN" "http://www.w3.org/Graphics/SVG/1.1/DTD/svg11.dtd" >
<svg xmlns="http://www.w3.org/2000/svg" xmlns:xlink="http://www.w3.org/1999/xlink" version="1.1">
<metadata>
Created by FontForge 20170924 at Tue Mar 20 21:26:18 2007
 By www-data
Copyright (c) Feliciano Type Foundry, 2002-2005. All rights reserved.
</metadata>
<defs>
<font id="FlamaLight" horiz-adv-x="500" >
  <font-face 
    font-family="FlamaLight"
    font-weight="500"
    font-stretch="normal"
    units-per-em="1000"
    panose-1="0 0 0 0 0 0 0 0 0 0"
    ascent="800"
    descent="-200"
    x-height="500"
    cap-height="713"
    bbox="-21 -201 1015 957"
    underline-thickness="20"
    underline-position="-100"
    stemh="58"
    unicode-range="U+0020-FB02"
  />
<missing-glyph horiz-adv-x="1000" 
 />
    <glyph glyph-name=".notdef" horiz-adv-x="1000" 
 />
    <glyph glyph-name="space" unicode=" " horiz-adv-x="230" 
 />
    <glyph glyph-name="exclam" unicode="!" horiz-adv-x="268" 
d="M168 520l-12 -304h-44l-12 304v193h68v-193zM170 0h-72v113h72v-113z" />
    <glyph glyph-name="quotedbl" unicode="&#x22;" horiz-adv-x="366" 
d="M290 624l-15 -121h-42l-15 121v90h72v-90zM148 624l-15 -121h-42l-15 121v90h72v-90z" />
    <glyph glyph-name="numbersign" unicode="#" horiz-adv-x="552" 
d="M512 458l-8 -46h-88l-36 -202h88l-8 -46h-88l-32 -177h-44l31 177h-159l-31 -177h-44l31 177h-88l8 46h89l36 202h-89l8 46h89l29 163h44l-29 -163h159l29 163h44l-29 -163h88zM372 412h-159l-36 -202h159z" />
    <glyph glyph-name="dollar" unicode="$" horiz-adv-x="513" 
d="M472 230c0 -106 -80 -163 -173 -174v-79h-53v77c-110 6 -179 68 -198 164l68 9c16 -66 60 -117 148 -117c64 0 140 34 140 112c0 56 -40 80 -92 97c-88 30 -233 57 -233 181c0 100 72 155 167 161v68h53v-69c94 -9 137 -57 159 -124l-59 -17c-19 44 -40 88 -134 88
c-62 0 -119 -35 -119 -96c0 -46 31 -75 76 -91l120 -42c65 -23 130 -64 130 -148z" />
    <glyph glyph-name="percent" unicode="%" horiz-adv-x="762" 
d="M328 475c0 -77 -58 -118 -129 -118c-82 0 -124 43 -124 118v128c0 83 55 122 126 122c72 0 127 -37 127 -122v-128zM640 722l-460 -731h-53l461 731h52zM687 106c0 -77 -59 -117 -130 -117c-73 0 -124 39 -124 118v127c0 83 55 122 126 122c72 0 128 -37 128 -122v-128z
M274 474v135c0 40 -18 73 -73 73c-53 0 -73 -30 -73 -73v-135c0 -45 18 -72 71 -72c54 0 75 31 75 72zM633 105v135c0 40 -19 73 -74 73c-53 0 -73 -30 -73 -73v-135c0 -45 18 -71 71 -71c54 0 76 30 76 71z" />
    <glyph glyph-name="ampersand" unicode="&#x26;" horiz-adv-x="724" 
d="M701 0h-88l-88 92c-56 -62 -133 -104 -241 -104c-146 0 -228 89 -228 193c0 72 41 165 182 220c-44 46 -95 100 -95 161c0 66 55 164 208 164c123 0 184 -80 184 -153c0 -103 -108 -168 -191 -191l183 -196c23 40 39 82 55 130l52 -7c-16 -54 -37 -110 -70 -163zM466 572
c0 69 -62 99 -120 99c-87 0 -130 -47 -130 -107c0 -38 33 -77 57 -104c10 -12 21 -23 34 -37c86 22 159 63 159 149zM489 131l-216 232c-95 -29 -142 -108 -142 -177c0 -89 70 -143 166 -143c81 0 143 31 192 88z" />
    <glyph glyph-name="quoteright" unicode="&#x2019;" horiz-adv-x="221" 
d="M148 603l-33 -101h-42l25 102h-22v109h72v-110z" />
    <glyph glyph-name="parenleft" unicode="(" horiz-adv-x="384" 
d="M314 -182h-37c-74 112 -120 345 -120 479c0 155 35 330 119 476h38c-67 -167 -86 -291 -86 -476c0 -164 27 -327 86 -479z" />
    <glyph glyph-name="parenright" unicode=")" horiz-adv-x="384" 
d="M227 297c0 -134 -46 -367 -120 -479h-37c59 152 86 315 86 479c0 185 -19 309 -86 476h38c84 -146 119 -321 119 -476z" />
    <glyph glyph-name="asterisk" unicode="*" horiz-adv-x="417" 
d="M377 630l-120 -68l80 -117l-43 -29l-85 125l-85 -125l-43 29l78 117l-119 68l26 43l117 -66v131h51v-131l116 66z" />
    <glyph glyph-name="plus" unicode="+" horiz-adv-x="596" 
d="M518 295h-195v-197h-49v197h-196v46h196v197h49v-197h195v-46z" />
    <glyph glyph-name="comma" unicode="," horiz-adv-x="224" 
d="M148 3l-33 -101h-42l25 102h-22v109h72v-110z" />
    <glyph glyph-name="hyphen" unicode="-" horiz-adv-x="364" 
d="M319 237h-274v63h274v-63z" />
    <glyph glyph-name="period" unicode="." horiz-adv-x="224" 
d="M148 0h-72v113h72v-113z" />
    <glyph glyph-name="slash" unicode="/" horiz-adv-x="333" 
d="M317 727l-241 -764h-59l243 764h57z" />
    <glyph glyph-name="zero" unicode="0" horiz-adv-x="560" 
d="M496 194c0 -124 -93 -206 -216 -206c-120 0 -216 67 -216 201v327c0 131 98 209 221 209c126 0 211 -76 211 -206v-325zM433 197v320c0 86 -48 155 -149 155c-100 0 -156 -69 -156 -161v-314c0 -86 53 -157 153 -157c98 0 152 72 152 157z" />
    <glyph glyph-name="one" unicode="1" horiz-adv-x="560" 
d="M483 0h-415v53h180v597l-164 -24l-7 48l183 39h51v-660h172v-53z" />
    <glyph glyph-name="two" unicode="2" horiz-adv-x="540" 
d="M467 0h-384v48l165 191c91 105 145 156 145 299c0 77 -39 134 -133 134c-78 0 -133 -38 -133 -108v-17h-58v13c0 109 81 165 197 165c124 0 189 -81 189 -187c0 -149 -69 -225 -164 -333l-130 -147v-3h306v-55z" />
    <glyph glyph-name="three" unicode="3" horiz-adv-x="550" 
d="M491 201c0 -127 -87 -213 -219 -213c-145 0 -196 84 -196 151v27h60v-20c0 -72 69 -105 142 -105c83 0 144 56 144 152c0 128 -103 154 -144 154h-61v51h58c78 0 128 52 128 144c0 98 -77 131 -129 131c-68 0 -133 -28 -133 -114v-12h-58v24c0 82 70 154 194 154
c149 0 190 -107 190 -175c0 -78 -42 -150 -102 -171v-3c54 -18 126 -73 126 -175z" />
    <glyph glyph-name="four" unicode="4" horiz-adv-x="560" 
d="M511 205h-101v-205h-60v205h-296v53l276 455h80v-455h101v-53zM350 258v389h-5l-230 -389h235z" />
    <glyph glyph-name="five" unicode="5" horiz-adv-x="540" 
d="M487 234c0 -165 -92 -246 -221 -246c-145 0 -196 85 -196 152v26h60v-20c0 -72 74 -105 139 -105c69 0 152 33 152 179c0 120 -67 172 -152 172c-60 0 -109 -25 -141 -58l-50 14l23 365h348v-53h-296l-15 -259c44 33 93 46 152 46c94 0 197 -70 197 -213z" />
    <glyph glyph-name="six" unicode="6" horiz-adv-x="550" 
d="M481 176c0 -121 -84 -188 -210 -188c-128 0 -202 88 -202 205v323c0 125 86 209 210 209c121 0 196 -63 196 -163v-15h-60v10c0 73 -55 115 -139 115c-98 0 -144 -68 -144 -149v-169c34 51 103 83 167 83c99 0 182 -53 182 -156v-105zM418 169v105c0 86 -68 111 -133 111
c-69 0 -153 -64 -153 -151v-48c0 -73 45 -145 146 -145c96 0 140 58 140 128z" />
    <glyph glyph-name="seven" unicode="7" horiz-adv-x="520" 
d="M468 654l-323 -654h-65l327 659h-353v54h414v-59z" />
    <glyph glyph-name="eight" unicode="8" horiz-adv-x="540" 
d="M479 177c0 -120 -93 -189 -214 -189c-123 0 -204 66 -204 177v52c0 65 41 123 99 149c-56 23 -92 74 -92 142v33c0 124 101 184 202 184c106 0 202 -51 202 -173v-35c0 -66 -36 -128 -102 -148c65 -19 109 -72 109 -140v-52zM408 510v42c0 81 -69 120 -141 120
c-67 0 -135 -43 -135 -122v-40c0 -89 73 -123 140 -123c65 0 136 44 136 123zM413 175v50c0 91 -74 117 -143 117c-73 0 -144 -30 -144 -120v-47c0 -81 67 -133 141 -133c78 0 146 45 146 133z" />
    <glyph glyph-name="nine" unicode="9" horiz-adv-x="542" 
d="M472 195c0 -125 -92 -207 -214 -207c-121 0 -192 63 -192 163v15h60v-10c0 -73 55 -115 139 -115c98 0 144 69 144 150v161c-28 -55 -103 -85 -167 -85c-99 0 -182 62 -182 165v105c0 121 84 188 210 188c128 0 202 -86 202 -203v-327zM409 469v54c0 73 -45 149 -146 149
c-96 0 -140 -58 -140 -128v-105c0 -86 68 -120 133 -120c69 0 153 63 153 150z" />
    <glyph glyph-name="colon" unicode=":" horiz-adv-x="224" 
d="M148 350h-72v113h72v-113zM148 0h-72v113h72v-113z" />
    <glyph glyph-name="semicolon" unicode=";" horiz-adv-x="224" 
d="M148 350h-72v113h72v-113zM148 3l-33 -101h-42l25 102h-22v109h72v-110z" />
    <glyph glyph-name="less" unicode="&#x3c;" horiz-adv-x="596" 
d="M508 170l-22 -44l-398 174v43l398 174l22 -44l-355 -151z" />
    <glyph glyph-name="equal" unicode="=" horiz-adv-x="596" 
d="M518 383h-440v46h440v-46zM518 210h-440v46h440v-46z" />
    <glyph glyph-name="greater" unicode="&#x3e;" horiz-adv-x="596" 
d="M508 300l-398 -174l-22 44l355 152l-355 151l22 44l398 -174v-43z" />
    <glyph glyph-name="question" unicode="?" horiz-adv-x="509" 
d="M452 544c0 -82 -44 -134 -83 -173c-8 -8 -47 -42 -52 -50c-27 -26 -42 -53 -42 -88v-34h-55v35c0 49 17 83 47 113c4 10 47 47 54 54c16 16 32 32 45 51c14 22 23 39 23 92c0 75 -48 129 -128 129c-56 0 -131 -27 -131 -113v-40h-58v34c0 117 87 171 193 171
c109 0 187 -67 187 -181zM281 0h-72v113h72v-113z" />
    <glyph glyph-name="at" unicode="@" horiz-adv-x="954" 
d="M863 389c0 -154 -103 -300 -238 -300c-51 0 -81 36 -90 82v0c-46 -63 -97 -79 -137 -79c-69 0 -104 72 -104 136c0 126 88 260 210 260h139l-58 -277c0 -48 22 -74 60 -74c116 0 164 177 164 259c0 168 -138 255 -289 255c-233 0 -373 -181 -373 -398
c0 -168 87 -273 225 -307c32 -8 95 -12 132 -12c80 0 134 17 171 27l11 -43c-70 -22 -123 -33 -185 -33c-39 0 -108 5 -142 13c-162 37 -268 161 -268 355c0 254 179 445 441 445c192 0 331 -111 331 -309zM572 433h-82c-85 0 -136 -115 -136 -185c0 -43 2 -102 63 -102
c73 0 114 100 123 142z" />
    <glyph glyph-name="A" unicode="A" horiz-adv-x="642" 
d="M606 0h-67l-77 222h-284l-76 -222h-66l256 719h62zM443 276l-123 354h-2l-121 -354h246z" />
    <glyph glyph-name="B" unicode="B" horiz-adv-x="602" 
d="M546 201c0 -140 -116 -201 -224 -201h-240v713h248c115 0 195 -62 195 -179c0 -83 -52 -144 -113 -165v-3c85 -21 134 -83 134 -165zM454 529c0 90 -56 127 -134 127h-175v-262h165c78 0 144 40 144 135zM471 200c0 97 -74 140 -161 140h-165v-284h174
c88 0 152 43 152 144z" />
    <glyph glyph-name="C" unicode="C" horiz-adv-x="622" 
d="M568 175c0 -104 -92 -187 -245 -187c-151 0 -259 79 -259 236v255c0 137 102 247 259 247c153 0 245 -83 245 -187v-27h-62v18c0 82 -59 140 -187 140c-123 0 -187 -78 -187 -185v-256c0 -115 68 -186 191 -186c128 0 183 59 183 141v18h62v-27z" />
    <glyph glyph-name="D" unicode="D" horiz-adv-x="632" 
d="M568 232c0 -143 -92 -232 -235 -232h-251v713h251c142 0 235 -76 235 -225v-256zM502 229v251c0 97 -51 176 -179 176h-177v-599h185c129 0 171 90 171 172z" />
    <glyph glyph-name="E" unicode="E" horiz-adv-x="560" 
d="M494 0h-412v713h412v-57h-348v-257h272v-56h-272v-286h348v-57z" />
    <glyph glyph-name="F" unicode="F" horiz-adv-x="528" 
d="M494 656h-348v-257h272v-56h-272v-343h-64v713h412v-57z" />
    <glyph glyph-name="G" unicode="G" horiz-adv-x="644" 
d="M574 217c0 -157 -106 -229 -256 -229c-146 0 -254 79 -254 236v246c0 156 107 256 260 256s244 -83 244 -187v-27h-62v18c0 82 -59 140 -187 140c-123 0 -187 -76 -187 -192v-249c0 -115 68 -186 191 -186c122 0 189 57 189 164v95h-177v57h239v-142z" />
    <glyph glyph-name="H" unicode="H" horiz-adv-x="664" 
d="M582 0h-64v342h-372v-342h-64v713h64v-313h372v313h64v-713z" />
    <glyph glyph-name="I" unicode="I" horiz-adv-x="516" 
d="M446 0h-376v57h156v599h-156v57h376v-57h-156v-599h156v-57z" />
    <glyph glyph-name="J" unicode="J" horiz-adv-x="584" 
d="M508 217c0 -129 -70 -229 -223 -229c-131 0 -224 63 -224 199v81h64v-74c0 -80 36 -151 165 -151c115 0 153 94 153 166v504h65v-496z" />
    <glyph glyph-name="K" unicode="K" horiz-adv-x="593" 
d="M556 0h-71l-242 371l-98 -108v-263h-63v713h63v-378l335 378h74l-266 -301z" />
    <glyph glyph-name="L" unicode="L" horiz-adv-x="528" 
d="M494 0h-412v713h65v-656h347v-57z" />
    <glyph glyph-name="M" unicode="M" horiz-adv-x="768" 
d="M686 0h-64v645h-5l-210 -487h-52l-207 487h-5v-645h-61v713h104l195 -467h3l198 467h104v-713z" />
    <glyph glyph-name="N" unicode="N" horiz-adv-x="657" 
d="M575 -2h-58l-375 607h-3v-605h-57v713h66l368 -589h3v589h56v-715z" />
    <glyph glyph-name="O" unicode="O" horiz-adv-x="644" 
d="M580 236c0 -157 -112 -248 -262 -248c-146 0 -254 79 -254 236v246c0 156 102 256 259 256c153 0 257 -82 257 -237v-253zM512 230v257c0 112 -65 181 -193 181c-123 0 -187 -80 -187 -196v-243c0 -115 68 -184 191 -184c122 0 189 72 189 185z" />
    <glyph glyph-name="P" unicode="P" horiz-adv-x="596" 
d="M536 506c0 -137 -92 -218 -244 -218h-146v-288h-64v713h223c143 0 231 -80 231 -207zM468 506c0 95 -69 150 -188 150h-134v-311h136c124 0 186 52 186 161z" />
    <glyph glyph-name="Q" unicode="Q" horiz-adv-x="644" 
d="M612 -10l-37 -45l-104 82c-43 -25 -95 -39 -153 -39c-146 0 -254 79 -254 236v246c0 156 102 256 259 256c153 0 257 -82 257 -237v-253c0 -72 -23 -130 -63 -172zM512 230v257c0 112 -65 181 -193 181c-123 0 -187 -80 -187 -196v-243c0 -115 68 -184 191 -184
c39 0 72 7 100 21l-77 62l36 45l88 -70c28 31 42 75 42 127z" />
    <glyph glyph-name="R" unicode="R" horiz-adv-x="614" 
d="M565 0h-79l-199 288h-141v-288h-64v713h232c143 0 231 -80 231 -207c0 -119 -69 -196 -188 -214zM477 506c0 95 -69 150 -188 150h-143v-311h145c124 0 186 52 186 161z" />
    <glyph glyph-name="S" unicode="S" horiz-adv-x="596" 
d="M544 200c0 -142 -112 -212 -242 -212c-143 0 -229 76 -252 192l68 9c19 -80 75 -144 184 -144c80 0 171 44 171 145c0 73 -46 111 -110 131l-144 46c-72 23 -136 81 -136 164c0 126 96 194 219 194c108 0 185 -33 228 -134l-54 -27c-36 75 -88 105 -172 105
c-78 0 -152 -44 -152 -124c0 -60 40 -98 97 -117l147 -49c79 -26 148 -80 148 -179z" />
    <glyph glyph-name="T" unicode="T" horiz-adv-x="546" 
d="M512 655h-204v-655h-68v655h-206v58h478v-58z" />
    <glyph glyph-name="U" unicode="U" horiz-adv-x="632" 
d="M564 197c0 -149 -139 -209 -253 -209c-109 0 -243 56 -243 202v523h66v-511c0 -109 93 -158 187 -158c85 0 182 46 182 157v512h61v-516z" />
    <glyph glyph-name="V" unicode="V" horiz-adv-x="585" 
d="M553 713l-226 -719h-70l-225 719h67l194 -625h4l190 625h66z" />
    <glyph glyph-name="W" unicode="W" horiz-adv-x="898" 
d="M866 713l-193 -719h-63l-159 616h-3l-162 -616h-64l-190 719h66l156 -617h5l158 617h71l155 -617h4l159 617h60z" />
    <glyph glyph-name="X" unicode="X" horiz-adv-x="544" 
d="M520 0h-75l-176 307l-176 -307h-69l210 370l-193 343h76l161 -288l163 288h68l-196 -348z" />
    <glyph glyph-name="Y" unicode="Y" horiz-adv-x="560" 
d="M536 713l-224 -408v-305h-63v305l-225 408h71l187 -350l189 350h65z" />
    <glyph glyph-name="Z" unicode="Z" horiz-adv-x="552" 
d="M502 674l-372 -619h369v-55h-445v44l372 614h-361v55h437v-39z" />
    <glyph glyph-name="bracketleft" unicode="[" horiz-adv-x="380" 
d="M356 -200h-193v974h193v-42h-135v-890h135v-42z" />
    <glyph glyph-name="backslash" unicode="\" horiz-adv-x="333" 
d="M319 -37h-59l-241 764h57z" />
    <glyph glyph-name="bracketright" unicode="]" horiz-adv-x="380" 
d="M217 -200h-193v42h135v890h-135v42h193v-974z" />
    <glyph glyph-name="asciicircum" unicode="^" horiz-adv-x="773" 
d="M717 0h-661v713h661v-713z" />
    <glyph glyph-name="underscore" unicode="_" 
d="M500 -124h-500v48h500v-48z" />
    <glyph glyph-name="quoteleft" unicode="&#x2018;" horiz-adv-x="221" 
d="M148 713l-25 -102h22v-109h-72v110l33 101h42z" />
    <glyph glyph-name="a" unicode="a" horiz-adv-x="506" 
d="M435 0h-63c-1 16 -3 41 -4 57h-2c-40 -44 -90 -68 -146 -68c-85 0 -170 42 -170 135c0 136 127 161 202 161h116v72c0 75 -44 109 -112 109c-56 0 -119 -19 -119 -85v-12h-57v8c0 100 85 136 182 136c91 0 167 -37 167 -142v-269c0 -37 2 -69 6 -102zM368 167v70h-123
c-64 0 -130 -18 -130 -107c0 -64 53 -89 107 -89c74 0 146 45 146 126z" />
    <glyph glyph-name="b" unicode="b" horiz-adv-x="518" 
d="M460 164c0 -125 -93 -176 -179 -176c-55 0 -116 27 -141 67h-2v-55h-60v713h62v-294h1c32 50 85 93 149 93c107 0 170 -70 170 -163v-185zM396 164v178c0 61 -31 117 -115 117c-68 0 -141 -68 -141 -146v-137c0 -87 76 -138 139 -138c60 0 117 42 117 126z" />
    <glyph glyph-name="c" unicode="c" horiz-adv-x="486" 
d="M436 141c0 -82 -55 -153 -183 -153s-195 74 -195 202v119c0 124 75 203 195 203c128 0 183 -71 183 -153v-15h-58v17c0 32 -23 99 -123 99c-99 0 -133 -64 -133 -155v-114c0 -85 32 -151 132 -151s124 67 124 99v17h58v-15z" />
    <glyph glyph-name="d" unicode="d" horiz-adv-x="518" 
d="M440 0h-60v73h-1c-32 -50 -87 -85 -151 -85c-107 0 -170 70 -170 163v185c0 125 103 176 189 176c46 0 104 -24 129 -64h2v265h62v-713zM378 179v152c0 87 -73 131 -136 131c-60 0 -120 -42 -120 -126v-178c0 -61 31 -117 115 -117c68 0 141 60 141 138z" />
    <glyph glyph-name="e" unicode="e" horiz-adv-x="496" 
d="M446 82c-43 -64 -105 -94 -170 -94c-124 0 -218 63 -218 204v112c0 138 85 208 203 208c115 0 185 -72 185 -201v-80h-325v-37c0 -86 53 -152 159 -152c51 0 97 33 124 68zM386 281v34c0 70 -24 145 -127 145c-96 0 -138 -67 -138 -136v-43h265z" />
    <glyph glyph-name="f" unicode="f" horiz-adv-x="375" 
d="M343 663c-26 10 -41 14 -70 14c-40 0 -73 -24 -73 -86v-95h135v-50h-135v-446h-62v446h-95v50h95v87c0 93 59 145 139 145c24 0 43 -3 66 -11v-54z" />
    <glyph glyph-name="g" unicode="g" horiz-adv-x="514" 
d="M440 -10c0 -121 -86 -190 -202 -190c-74 0 -138 21 -185 81l48 39c39 -43 89 -68 147 -68c84 0 130 68 130 127v110h-1c-32 -50 -85 -85 -149 -85c-107 0 -170 70 -170 163v169c0 125 98 176 189 176c46 0 106 -24 131 -64h2v52h60v-510zM378 195v136
c0 87 -73 131 -136 131c-60 0 -120 -42 -120 -126v-162c0 -61 31 -117 115 -117c68 0 141 60 141 138z" />
    <glyph glyph-name="h" unicode="h" horiz-adv-x="526" 
d="M452 0h-62v336c0 85 -46 123 -105 123c-72 0 -145 -73 -145 -163v-296h-62v713h62v-300h1c36 60 83 99 161 99c105 0 150 -81 150 -152v-360z" />
    <glyph glyph-name="i" unicode="i" horiz-adv-x="218" 
d="M140 612h-62v108h62v-108zM140 0h-62v500h62v-500z" />
    <glyph glyph-name="j" unicode="j" horiz-adv-x="251" 
d="M173 612h-63v108h63v-108zM173 -55c0 -97 -49 -145 -142 -145c-18 0 -37 1 -52 4v50c15 -3 41 -4 55 -4c61 0 76 39 76 92v558h63v-555z" />
    <glyph glyph-name="k" unicode="k" horiz-adv-x="477" 
d="M455 0h-64l-155 280l-96 -103v-177h-62v713h62v-474l239 261h64l-162 -179z" />
    <glyph glyph-name="l" unicode="l" horiz-adv-x="290" 
d="M263 3c-28 -9 -51 -13 -70 -13c-74 0 -117 35 -117 116v607h63v-606c0 -36 16 -65 60 -65c18 0 45 4 64 8v-47z" />
    <glyph glyph-name="m" unicode="m" horiz-adv-x="830" 
d="M756 0h-62v336c0 85 -42 123 -101 123c-72 0 -145 -73 -145 -163v-296h-62v336c0 85 -42 123 -101 123c-72 0 -145 -73 -145 -163v-296h-62v500h60v-87h3c36 60 83 99 161 99c79 0 123 -47 139 -100h4c36 60 86 100 165 100c105 0 146 -81 146 -152v-360z" />
    <glyph glyph-name="n" unicode="n" horiz-adv-x="526" 
d="M452 0h-62v336c0 85 -46 123 -105 123c-72 0 -145 -73 -145 -163v-296h-62v500h60v-87h3c36 60 83 99 161 99c105 0 150 -81 150 -152v-360z" />
    <glyph glyph-name="o" unicode="o" 
d="M442 191c0 -129 -74 -203 -194 -203c-128 0 -190 74 -190 202v119c0 129 73 203 193 203c128 0 191 -75 191 -203v-118zM378 194v116c0 85 -25 150 -125 150c-99 0 -131 -64 -131 -155v-114c0 -85 25 -152 125 -152c99 0 131 64 131 155z" />
    <glyph glyph-name="p" unicode="p" horiz-adv-x="518" 
d="M460 164c0 -125 -93 -176 -179 -176c-55 0 -114 24 -139 64h-2v-246h-62v694h60v-81h1c32 50 87 93 151 93c107 0 170 -70 170 -163v-185zM396 164v178c0 61 -31 117 -115 117c-68 0 -141 -68 -141 -146v-137c0 -87 76 -138 139 -138c60 0 117 42 117 126z" />
    <glyph glyph-name="q" unicode="q" horiz-adv-x="518" 
d="M440 -194h-62v267h-1c-32 -50 -85 -85 -149 -85c-107 0 -170 70 -170 163v174c0 125 92 187 183 187c46 0 112 -24 137 -64h2v52h60v-694zM378 179v152c0 87 -73 131 -136 131c-60 0 -120 -42 -120 -126v-178c0 -61 31 -117 115 -117c68 0 141 60 141 138z" />
    <glyph glyph-name="r" unicode="r" horiz-adv-x="385" 
d="M356 443c-21 5 -49 7 -61 7c-15 0 -38 -3 -53 -8c-54 -18 -102 -70 -102 -153v-289h-62v500h61v-94h2c47 70 96 99 168 99c19 0 32 -3 47 -5v-57z" />
    <glyph glyph-name="s" unicode="s" horiz-adv-x="472" 
d="M422 146c0 -104 -95 -158 -190 -158c-76 0 -143 19 -190 69l41 43c43 -38 90 -60 149 -60c50 0 128 31 128 90c0 58 -34 79 -98 91l-71 13c-77 14 -127 55 -127 131c0 75 57 147 173 147c64 0 120 -13 159 -50l-36 -44c-40 30 -69 42 -133 42c-62 0 -99 -38 -99 -83
c0 -47 21 -75 80 -85l90 -16c61 -11 124 -43 124 -130z" />
    <glyph glyph-name="t" unicode="t" horiz-adv-x="382" 
d="M348 15c-41 -19 -78 -24 -108 -24c-56 0 -126 18 -126 109v346h-95v50h95v174h62v-174h163v-50h-163v-339c0 -48 25 -67 73 -67c35 0 75 11 99 20v-45z" />
    <glyph glyph-name="u" unicode="u" horiz-adv-x="526" 
d="M452 0h-61v87h-3c-36 -60 -82 -99 -160 -99c-105 0 -150 81 -150 152v360h62v-336c0 -85 46 -123 105 -123c72 0 145 70 145 160v299h62v-500z" />
    <glyph glyph-name="v" unicode="v" horiz-adv-x="476" 
d="M446 500l-176 -502h-66l-174 502h66l142 -429h3l145 429h60z" />
    <glyph glyph-name="w" unicode="w" horiz-adv-x="796" 
d="M758 500l-159 -502h-67l-132 431h-3l-136 -431h-64l-159 502h65l127 -423h4l130 423h75l128 -423h3l132 423h56z" />
    <glyph glyph-name="x" unicode="x" horiz-adv-x="462" 
d="M440 0h-70l-142 211l-139 -211h-67l175 260l-160 240h72l127 -191l129 191h64l-162 -238z" />
    <glyph glyph-name="y" unicode="y" horiz-adv-x="479" 
d="M449 500l-207 -579c-33 -91 -87 -121 -146 -121c-25 0 -50 0 -81 12v49c25 -7 51 -12 78 -12c45 0 72 20 88 64l35 96l-179 491h67l142 -410h3l138 410h62z" />
    <glyph glyph-name="z" unicode="z" horiz-adv-x="475" 
d="M410 0h-355v53l279 395h-271v52h346v-48l-282 -402h283v-50z" />
    <glyph glyph-name="braceleft" unicode="{" horiz-adv-x="380" 
d="M355 -200h-192v448l-43 70l43 61v395h192v-43h-133v-360l-42 -53l42 -64v-412h133v-42z" />
    <glyph glyph-name="bar" unicode="|" horiz-adv-x="324" 
d="M190 -39h-56v764h56v-764z" />
    <glyph glyph-name="braceright" unicode="}" horiz-adv-x="380" 
d="M260 318l-43 -70v-448h-192v42h133v412l42 64l-42 53v360h-133v43h192v-395z" />
    <glyph glyph-name="asciitilde" unicode="~" horiz-adv-x="773" 
d="M717 0h-661v713h661v-713zM665 52v609h-557v-609h557z" />
    <glyph glyph-name="exclamdown" unicode="&#xa1;" horiz-adv-x="268" 
d="M170 412h-72v113h72v-113zM168 -188h-68v193l12 304h44l12 -304v-193z" />
    <glyph glyph-name="cent" unicode="&#xa2;" horiz-adv-x="506" 
d="M450 208c0 -97 -51 -171 -161 -181v-80h-55v81c-109 10 -166 82 -166 200v119c0 119 63 191 166 202v68h55v-68c110 -10 161 -83 161 -181v-11h-58v12c0 57 -27 129 -127 129c-99 0 -133 -64 -133 -155v-114c0 -84 33 -151 133 -151s127 72 127 129v12h58v-11z" />
    <glyph glyph-name="sterling" unicode="&#xa3;" horiz-adv-x="558" 
d="M520 55l-17 -55h-446v55h81v283h-78v51h78v149c0 137 85 187 186 187c112 0 174 -52 174 -155v-35h-56v36c0 72 -51 104 -119 104c-70 0 -124 -33 -124 -133v-153h222v-51h-222v-283h321z" />
    <glyph glyph-name="fraction" unicode="&#x2044;" horiz-adv-x="538" 
d="M510 727l-431 -764h-62l433 764h60z" />
    <glyph glyph-name="yen" unicode="&#xa5;" horiz-adv-x="560" 
d="M536 713l-224 -408v-5h210v-52h-210v-248h-66v248h-212v52h212v5l-222 408h71l187 -350l189 350h65z" />
    <glyph glyph-name="florin" unicode="&#x192;" horiz-adv-x="366" 
d="M343 667c-22 4 -55 10 -84 10c-40 0 -59 -33 -59 -67v-155h135v-50h-135v-598h-62v598h-118v49h118v154c0 76 48 120 128 120c24 0 54 -3 77 -10v-51z" />
    <glyph glyph-name="section" unicode="&#xa7;" horiz-adv-x="584" 
d="M491 75c0 -87 -72 -162 -208 -162c-93 0 -190 37 -190 139v36h62v-18c0 -68 54 -102 135 -102s136 38 136 94c0 58 -48 75 -93 91c-14 5 -103 31 -103 31c-75 23 -126 60 -126 131c0 57 30 106 91 131c-64 26 -92 57 -92 120c0 83 63 146 192 146c117 0 186 -51 186 -140
v-31h-59v24c0 59 -54 94 -133 94c-61 0 -120 -23 -120 -86c0 -57 66 -70 107 -85c12 -5 91 -33 91 -33c68 -25 122 -52 122 -126c0 -59 -26 -105 -88 -130c53 -24 90 -62 90 -124zM425 310c0 48 -39 67 -77 79c0 0 -79 25 -96 29c-46 -14 -82 -43 -82 -96
c0 -48 58 -67 94 -78c0 0 73 -20 81 -24c53 15 80 52 80 90z" />
    <glyph glyph-name="currency" unicode="&#xa4;" horiz-adv-x="702" 
d="M628 226c0 -157 -84 -238 -234 -238c-146 0 -241 79 -241 236v24h-105v52h105v102h-105v52h105v16c0 156 89 256 246 256c153 0 229 -77 229 -227v-25h-62v18c0 112 -43 176 -171 176c-123 0 -174 -80 -174 -196v-18h249v-52h-249v-102h249v-52h-249v-19
c0 -115 55 -184 178 -184c122 0 167 64 167 171v22h62v-12z" />
    <glyph glyph-name="quotesingle" unicode="'" horiz-adv-x="224" 
d="M148 624l-15 -121h-42l-15 121v90h72v-90z" />
    <glyph glyph-name="quotedblleft" unicode="&#x201c;" horiz-adv-x="362" 
d="M289 713l-25 -102h22v-109h-72v110l33 101h42zM148 713l-25 -102h22v-109h-72v110l33 101h42z" />
    <glyph glyph-name="guillemotleft" unicode="&#xab;" horiz-adv-x="552" 
d="M503 117l-37 -35l-190 191l189 192l37 -36l-143 -156zM276 117l-37 -35l-190 191l189 192l37 -36l-143 -156z" />
    <glyph glyph-name="guilsinglleft" unicode="&#x2039;" horiz-adv-x="325" 
d="M276 117l-37 -35l-190 191l189 192l37 -36l-143 -156z" />
    <glyph glyph-name="guilsinglright" unicode="&#x203a;" horiz-adv-x="325" 
d="M276 273l-189 -191l-38 35l145 156l-143 156l36 36z" />
    <glyph glyph-name="fi" unicode="&#xfb01;" horiz-adv-x="584" 
d="M506 612h-62v108h62v-108zM506 0h-62v500h62v-500zM343 663c-26 10 -41 14 -70 14c-40 0 -73 -24 -73 -86v-95h135v-50h-135v-446h-62v446h-95v50h95v87c0 93 59 145 139 145c24 0 43 -3 66 -11v-54z" />
    <glyph glyph-name="fl" unicode="&#xfb02;" horiz-adv-x="656" 
d="M629 3c-28 -9 -51 -13 -70 -13c-74 0 -117 35 -117 116v607h63v-606c0 -36 16 -65 60 -65c18 0 45 4 64 8v-47zM343 663c-26 10 -41 14 -70 14c-40 0 -73 -24 -73 -86v-95h135v-50h-135v-446h-62v446h-95v50h95v87c0 93 59 145 139 145c24 0 43 -3 66 -11v-54z" />
    <glyph glyph-name="endash" unicode="&#x2013;" horiz-adv-x="556" 
d="M522 248h-488v52h488v-52z" />
    <glyph glyph-name="dagger" unicode="&#x2020;" horiz-adv-x="541" 
d="M467 479h-168v-632h-57v632h-168v53h168v181h57v-181h168v-53z" />
    <glyph glyph-name="daggerdbl" unicode="&#x2021;" horiz-adv-x="541" 
d="M467 30h-167v-183h-58v183h-167v52h167v397h-167v53h167v181h58v-181h167v-53h-167v-397h167v-52z" />
    <glyph glyph-name="periodcentered" unicode="&#xb7;" horiz-adv-x="224" 
d="M148 332h-72v113h72v-113z" />
    <glyph glyph-name="paragraph" unicode="&#xb6;" horiz-adv-x="621" 
d="M561 661h-60v-751h-57v751h-122v-751h-56v331c-136 6 -189 114 -189 234c0 122 77 238 193 238h291v-52z" />
    <glyph glyph-name="bullet" unicode="&#x2022;" horiz-adv-x="368" 
d="M261 362c0 -42 -34 -77 -76 -77c-43 0 -77 35 -77 77s34 76 77 76c42 0 76 -34 76 -76z" />
    <glyph glyph-name="quotesinglbase" unicode="&#x201a;" horiz-adv-x="224" 
d="M148 3l-33 -101h-42l25 102h-22v109h72v-110z" />
    <glyph glyph-name="quotedblbase" unicode="&#x201e;" horiz-adv-x="362" 
d="M289 3l-33 -101h-42l25 102h-22v109h72v-110zM148 3l-33 -101h-42l25 102h-22v109h72v-110z" />
    <glyph glyph-name="quotedblright" unicode="&#x201d;" horiz-adv-x="362" 
d="M289 603l-33 -101h-42l25 102h-22v109h72v-110zM148 603l-33 -101h-42l25 102h-22v109h72v-110z" />
    <glyph glyph-name="guillemotright" unicode="&#xbb;" horiz-adv-x="552" 
d="M503 274l-189 -192l-37 36l143 156l-144 156l37 35zM276 274l-189 -192l-37 36l143 156l-144 156l37 35z" />
    <glyph glyph-name="ellipsis" unicode="&#x2026;" horiz-adv-x="638" 
d="M540 0h-72v113h72v-113zM355 0h-72v113h72v-113zM170 0h-72v113h72v-113z" />
    <glyph glyph-name="perthousand" unicode="&#x2030;" horiz-adv-x="1090" 
d="M1015 106c0 -77 -59 -117 -130 -117c-73 0 -124 39 -124 118v127c0 83 55 122 126 122c72 0 128 -37 128 -122v-128zM328 475c0 -77 -58 -118 -129 -118c-82 0 -124 43 -124 118v128c0 83 55 122 126 122c72 0 127 -37 127 -122v-128zM640 722l-460 -731h-53l461 731h52z
M687 106c0 -77 -59 -117 -130 -117c-73 0 -124 39 -124 118v127c0 83 55 122 126 122c72 0 128 -37 128 -122v-128zM961 105v135c0 40 -19 73 -74 73c-53 0 -73 -30 -73 -73v-135c0 -45 18 -71 71 -71c54 0 76 30 76 71zM274 474v135c0 40 -18 73 -73 73
c-53 0 -73 -30 -73 -73v-135c0 -45 18 -72 71 -72c54 0 75 31 75 72zM633 105v135c0 40 -19 73 -74 73c-53 0 -73 -30 -73 -73v-135c0 -45 18 -71 71 -71c54 0 76 30 76 71z" />
    <glyph glyph-name="questiondown" unicode="&#xbf;" horiz-adv-x="509" 
d="M314 411h-72v113h72v-113zM452 -30c0 -117 -88 -171 -193 -171c-110 0 -187 67 -187 181c0 82 43 134 82 173c8 8 47 42 53 50c27 26 41 53 41 88v34h56v-35c0 -49 -17 -83 -47 -113c-4 -10 -47 -47 -54 -54c-16 -16 -33 -32 -45 -51c-14 -22 -24 -39 -24 -92
c0 -75 48 -129 128 -129c56 0 132 27 132 113v40h58v-34z" />
    <glyph glyph-name="grave" unicode="`" horiz-adv-x="268" 
d="M213 576h-48l-109 161h71z" />
    <glyph glyph-name="acute" unicode="&#xb4;" horiz-adv-x="268" 
d="M213 737l-109 -161h-49l86 161h72z" />
    <glyph glyph-name="circumflex" unicode="&#x2c6;" horiz-adv-x="400" 
d="M316 575h-58l-56 111l-60 -111h-58l90 166h58z" />
    <glyph glyph-name="tilde" unicode="&#x2dc;" horiz-adv-x="389" 
d="M355 678c-10 -49 -31 -85 -81 -85c-26 0 -51 8 -76 15c-26 7 -54 14 -81 14c-34 0 -37 -15 -47 -39l-36 6c12 52 38 86 85 86c26 0 51 -7 76 -14c26 -8 52 -15 79 -15c29 0 34 17 45 40z" />
    <glyph glyph-name="macron" unicode="&#xaf;" horiz-adv-x="401" 
d="M339 606h-277v56h277v-56z" />
    <glyph glyph-name="breve" unicode="&#x2d8;" horiz-adv-x="357" 
d="M315 710c0 -88 -74 -122 -136 -122c-73 0 -137 42 -137 122h49c0 -49 38 -80 92 -80c39 0 86 27 86 80h46z" />
    <glyph glyph-name="dotaccent" unicode="&#x2d9;" horiz-adv-x="226" 
d="M150 608h-74v88h74v-88z" />
    <glyph glyph-name="dieresis" unicode="&#xa8;" horiz-adv-x="416" 
d="M332 594h-64v88h64v-88zM148 594h-64v88h64v-88z" />
    <glyph glyph-name="ring" unicode="&#x2da;" horiz-adv-x="284" 
d="M239 666c0 -53 -44 -95 -97 -95c-68 0 -97 46 -97 89c0 50 40 95 96 95c65 0 98 -41 98 -89zM193 663c0 27 -15 55 -51 55c-33 0 -51 -26 -51 -55c0 -30 22 -54 50 -54c30 0 52 24 52 54z" />
    <glyph glyph-name="cedilla" unicode="&#xb8;" horiz-adv-x="400" 
d="M303 -120c0 -52 -52 -78 -115 -78c-28 0 -73 9 -96 20v36c25 -11 71 -19 94 -19c45 0 65 14 65 34c0 30 -29 33 -44 33l-52 1l21 98h41l-12 -64h13c45 0 85 -15 85 -61z" />
    <glyph glyph-name="hungarumlaut" unicode="&#x2dd;" horiz-adv-x="394" 
d="M341 750l-102 -176h-49l79 176h72zM204 750l-102 -176h-49l79 176h72z" />
    <glyph glyph-name="ogonek" unicode="&#x2db;" horiz-adv-x="400" 
d="M277 -185c-17 -6 -49 -13 -67 -13c-60 0 -96 28 -96 79c0 65 57 111 120 135l30 -16c-41 -25 -94 -54 -94 -102c0 -42 31 -55 62 -55c8 0 34 2 45 5v-33z" />
    <glyph glyph-name="caron" unicode="&#x2c7;" horiz-adv-x="400" 
d="M316 741l-90 -166h-58l-84 166h58l56 -111l60 111h58z" />
    <glyph glyph-name="emdash" unicode="&#x2014;" horiz-adv-x="802" 
d="M768 248h-734v52h734v-52z" />
    <glyph glyph-name="AE" unicode="&#xc6;" horiz-adv-x="947" 
d="M886 0h-412v221h-253l-130 -221h-71l424 713h442v-57h-348v-257h272v-56h-272v-286h348v-57zM474 276v373l-220 -373h220z" />
    <glyph glyph-name="ordfeminine" unicode="&#xaa;" horiz-adv-x="390" 
d="M332 368h-53c-1 11 -2 23 -3 33c-27 -26 -60 -41 -96 -41c-59 0 -121 29 -121 97c0 111 111 115 161 115h56v39c0 48 -28 74 -72 74c-37 0 -75 -17 -75 -58v-19h-50v16c0 73 62 104 130 104c63 0 118 -32 118 -107v-179c0 -24 2 -46 5 -74zM317 253h-241v47h241v-47z
M276 487v42h-60c-45 0 -102 -1 -102 -67c0 -40 32 -56 67 -56c49 0 95 30 95 81z" />
    <glyph glyph-name="Lslash" unicode="&#x141;" horiz-adv-x="538" 
d="M504 0h-412v319l-59 -30v52l59 30v342h65v-309l149 75v-52l-149 -75v-295h347v-57z" />
    <glyph glyph-name="Oslash" unicode="&#xd8;" horiz-adv-x="644" 
d="M580 236c0 -157 -112 -248 -262 -248c-60 0 -114 14 -157 41l-35 -62l-41 21l40 70c-38 39 -61 94 -61 166v246c0 156 102 256 259 256c63 0 118 -14 161 -42l34 60l41 -21l-39 -68c38 -40 60 -95 60 -166v-253zM452 629c-31 25 -76 39 -133 39
c-123 0 -187 -80 -187 -196v-243c0 -43 10 -80 28 -109zM512 230v257c0 42 -9 78 -27 106l-292 -509c32 -25 76 -39 130 -39c122 0 189 72 189 185z" />
    <glyph glyph-name="OE" unicode="&#x152;" horiz-adv-x="984" 
d="M923 0h-412v62c-45 -48 -113 -74 -193 -74c-146 0 -254 79 -254 236v246c0 156 102 256 259 256c80 0 144 -22 188 -66v53h412v-57h-348v-257h272v-56h-272v-286h348v-57zM511 207v303c-9 99 -73 158 -192 158c-123 0 -187 -80 -187 -196v-243c0 -115 68 -184 191 -184
c113 0 179 63 188 162z" />
    <glyph glyph-name="ordmasculine" unicode="&#xba;" horiz-adv-x="401" 
d="M340 502c0 -93 -53 -147 -141 -147c-93 0 -138 55 -138 147v82c0 93 53 148 140 148c93 0 139 -56 139 -148v-82zM321 253h-241v47h241v-47zM284 504v81c0 58 -17 99 -81 99s-85 -41 -85 -102v-80c0 -57 16 -99 81 -99c63 0 85 40 85 101z" />
    <glyph glyph-name="ae" unicode="&#xe6;" horiz-adv-x="814" 
d="M756 231h-325v-42c0 -83 63 -147 158 -147c51 0 89 23 119 46l35 -35c-45 -44 -108 -65 -157 -65c-97 0 -159 44 -189 102h-4c-34 -70 -104 -101 -173 -101c-85 0 -170 42 -170 135c0 136 127 161 202 161h116v71c0 75 -44 110 -112 110c-56 0 -119 -20 -119 -86v-11h-57
v7c0 100 85 137 182 137c64 0 121 -22 149 -71c37 47 96 71 165 71c115 0 180 -73 180 -202v-80zM696 281v34c0 70 -24 145 -127 145c-85 0 -138 -55 -138 -131v-48h265zM368 167v70h-123c-64 0 -130 -18 -130 -107c0 -64 53 -89 107 -89c74 0 146 45 146 126z" />
    <glyph glyph-name="dotlessi" unicode="&#x131;" horiz-adv-x="218" 
d="M140 0h-62v500h62v-500z" />
    <glyph glyph-name="lslash" unicode="&#x142;" horiz-adv-x="290" 
d="M263 3c-28 -9 -51 -13 -70 -13c-74 0 -117 35 -117 116v228l-53 -26v52l53 26v327h63v-296l85 41v-52l-85 -41v-258c0 -36 16 -65 60 -65c18 0 45 4 64 8v-47z" />
    <glyph glyph-name="oslash" unicode="&#xf8;" 
d="M442 191c0 -129 -74 -203 -194 -203c-46 0 -83 9 -112 27l-28 -46l-39 20l33 55c-29 35 -44 84 -44 146v119c0 129 73 203 193 203c47 0 85 -10 114 -29l27 45l39 -20l-32 -54c29 -35 43 -84 43 -145v-118zM336 435c-19 16 -46 25 -83 25c-99 0 -131 -64 -131 -155v-114
c0 -33 4 -64 15 -89zM378 194v116c0 32 -4 62 -14 86l-199 -332c19 -16 45 -25 82 -25c99 0 131 64 131 155z" />
    <glyph glyph-name="oe" unicode="&#x153;" horiz-adv-x="825" 
d="M767 231h-325v-40c0 -94 66 -149 158 -149c51 0 89 23 119 46l35 -35c-45 -44 -108 -65 -157 -65c-70 0 -144 20 -186 80c-36 -58 -98 -80 -163 -80c-130 0 -190 76 -190 202v119c0 123 67 203 193 203c66 0 128 -20 163 -80c39 57 105 81 173 81c125 0 180 -85 180 -202
v-80zM707 281v34c0 84 -35 145 -127 145c-83 0 -138 -53 -138 -136v-43h265zM378 194v116c0 87 -27 150 -125 150c-99 0 -131 -65 -131 -155v-114c0 -87 27 -152 125 -152c99 0 131 65 131 155z" />
    <glyph glyph-name="germandbls" unicode="&#xdf;" horiz-adv-x="588" 
d="M540 177c0 -69 -41 -128 -100 -161c-34 -19 -75 -28 -114 -28c-38 0 -82 7 -114 24v57c47 -21 90 -28 119 -28c39 0 83 14 108 38c25 25 40 59 40 100c0 127 -127 149 -203 149v47h33c65 25 116 104 116 173c0 76 -55 128 -144 128c-100 0 -141 -85 -141 -145v-531h-62
v521c0 120 93 205 209 205c131 0 200 -79 200 -175c0 -78 -46 -149 -109 -182v-2c132 -38 162 -114 162 -190z" />
    <glyph glyph-name="Eth" unicode="&#xd0;" horiz-adv-x="642" 
d="M578 232c0 -143 -92 -232 -235 -232h-251v338h-59v52h59v323h251c142 0 235 -76 235 -225v-256zM512 229v251c0 97 -51 176 -179 176h-177v-266h234v-52h-234v-281h185c129 0 171 90 171 172z" />
    <glyph glyph-name="eth" unicode="&#xf0;" 
d="M442 191c0 -129 -74 -203 -194 -203c-128 0 -190 74 -190 202v119c0 129 73 203 193 203c17 0 34 -1 49 -4l-57 86l-102 -30l-13 46l87 25l-53 80l56 17l53 -81l120 34l13 -45l-106 -30l113 -173c21 -33 31 -76 31 -128v-118zM378 194v116c0 85 -25 150 -125 150
c-99 0 -131 -64 -131 -155v-114c0 -85 25 -152 125 -152c99 0 131 64 131 155z" />
    <glyph glyph-name="Scaron" unicode="&#x160;" horiz-adv-x="596" 
d="M413 945l-90 -166h-57l-84 166h58l56 -111l60 111h57zM544 200c0 -142 -112 -212 -242 -212c-143 0 -229 76 -252 192l68 9c19 -80 75 -144 184 -144c80 0 171 44 171 145c0 73 -46 111 -110 131l-144 46c-72 23 -136 81 -136 164c0 126 96 194 219 194
c108 0 185 -33 228 -134l-54 -27c-36 75 -88 105 -172 105c-78 0 -152 -44 -152 -124c0 -60 40 -98 97 -117l147 -49c79 -26 148 -80 148 -179z" />
    <glyph glyph-name="scaron" unicode="&#x161;" horiz-adv-x="472" 
d="M349 741l-90 -166h-58l-84 166h58l56 -111l60 111h58zM422 146c0 -104 -95 -158 -190 -158c-76 0 -143 19 -190 69l41 43c43 -38 90 -60 149 -60c50 0 128 31 128 90c0 58 -34 79 -98 91l-71 13c-77 14 -127 55 -127 131c0 75 57 147 173 147c64 0 120 -13 159 -50
l-36 -44c-40 30 -69 42 -133 42c-62 0 -99 -38 -99 -83c0 -47 21 -75 80 -85l90 -16c61 -11 124 -43 124 -130z" />
    <glyph glyph-name="Yacute" unicode="&#xdd;" horiz-adv-x="560" 
d="M414 957l-102 -176h-49l79 176h72zM536 713l-224 -408v-305h-63v305l-225 408h71l187 -350l189 350h65z" />
    <glyph glyph-name="yacute" unicode="&#xfd;" horiz-adv-x="479" 
d="M365 750l-102 -176h-49l79 176h72zM449 500l-207 -579c-33 -91 -87 -121 -146 -121c-25 0 -50 0 -81 12v49c25 -7 51 -12 78 -12c45 0 72 20 88 64l35 96l-179 491h67l142 -410h3l138 410h62z" />
    <glyph glyph-name="Thorn" unicode="&#xde;" horiz-adv-x="596" 
d="M536 387c0 -137 -92 -218 -244 -218h-146v-169h-64v713h65v-119h158c143 0 231 -80 231 -207zM468 387c0 95 -69 150 -188 150h-133c0 -109 -1 -149 -1 -311h136c124 0 186 52 186 161z" />
    <glyph glyph-name="thorn" unicode="&#xfe;" horiz-adv-x="518" 
d="M460 164c0 -125 -93 -176 -179 -176c-55 0 -114 24 -139 64h-2v-246h-62v907h62v-294h1c32 50 85 93 149 93c107 0 170 -70 170 -163v-185zM396 164v178c0 61 -31 117 -115 117c-68 0 -141 -68 -141 -146v-137c0 -87 76 -138 139 -138c60 0 117 42 117 126z" />
    <glyph glyph-name="Zcaron" unicode="&#x17d;" horiz-adv-x="552" 
d="M408 945l-90 -166h-57l-84 166h58l56 -111l60 111h57zM502 674l-372 -619h369v-55h-445v44l372 614h-361v55h437v-39z" />
    <glyph glyph-name="zcaron" unicode="&#x17e;" horiz-adv-x="475" 
d="M359 741l-90 -166h-58l-84 166h58l56 -111l60 111h58zM410 0h-355v53l279 395h-271v52h346v-48l-282 -402h283v-50z" />
    <glyph glyph-name="onehalf" unicode="&#xbd;" 
 />
    <glyph glyph-name="onequarter" unicode="&#xbc;" 
 />
    <glyph glyph-name="onesuperior" unicode="&#xb9;" 
 />
    <glyph glyph-name="threequarters" unicode="&#xbe;" 
 />
    <glyph glyph-name="threesuperior" unicode="&#xb3;" 
 />
    <glyph glyph-name="twosuperior" unicode="&#xb2;" 
 />
    <glyph glyph-name="brokenbar" unicode="&#xa6;" horiz-adv-x="491" 
d="M270 379h-48v346h48v-346zM270 -77h-48v382h48v-382z" />
    <glyph glyph-name="minus" unicode="&#x2212;" horiz-adv-x="596" 
d="M488 294h-380v46h380v-46z" />
    <glyph glyph-name="multiply" unicode="&#xd7;" horiz-adv-x="506" 
d="M440 169l-35 -34l-153 153l-153 -153l-32 33l152 152l-153 154l35 35l153 -154l152 152l33 -32l-152 -152z" />
    <glyph glyph-name="Adieresis" unicode="&#xc4;" horiz-adv-x="642" 
d="M448 791h-62v93h62v-93zM256 791h-62v93h62v-93zM606 0h-67l-77 222h-284l-76 -222h-66l256 719h62zM443 276l-123 354h-2l-121 -354h246z" />
    <glyph glyph-name="Aring" unicode="&#xc5;" horiz-adv-x="642" 
d="M418 848c0 -53 -44 -95 -97 -95c-68 0 -97 46 -97 89c0 50 40 95 96 95c65 0 98 -41 98 -89zM606 0h-67l-77 222h-284l-76 -222h-66l256 719h62zM372 845c0 27 -15 55 -51 55c-33 0 -51 -26 -51 -55c0 -30 22 -54 50 -54c30 0 52 24 52 54zM443 276l-123 354h-2
l-121 -354h246z" />
    <glyph glyph-name="Ccedilla" unicode="&#xc7;" horiz-adv-x="622" 
d="M568 175c0 -100 -85 -180 -227 -187l-9 -47h13c45 0 85 -15 85 -61c0 -52 -52 -78 -115 -78c-28 0 -73 9 -96 20v36c25 -11 71 -19 94 -19c45 0 65 14 65 34c0 30 -29 33 -44 33l-52 1l18 82c-139 7 -236 86 -236 235v255c0 137 102 247 259 247c153 0 245 -83 245 -187
v-27h-62v18c0 82 -59 140 -187 140c-123 0 -187 -78 -187 -185v-256c0 -115 68 -186 191 -186c128 0 183 59 183 141v18h62v-27z" />
    <glyph glyph-name="Eacute" unicode="&#xc9;" horiz-adv-x="560" 
d="M414 957l-102 -176h-49l79 176h72zM494 0h-412v713h412v-57h-348v-257h272v-56h-272v-286h348v-57z" />
    <glyph glyph-name="Ntilde" unicode="&#xd1;" horiz-adv-x="657" 
d="M490 885c-10 -49 -31 -85 -82 -85c-26 0 -51 7 -76 14c-26 8 -53 15 -80 15c-34 0 -37 -16 -47 -39l-37 6c12 52 39 86 86 86c26 0 51 -8 75 -14c26 -8 52 -15 79 -15c29 0 34 17 45 40zM575 -2h-58l-375 607h-3v-605h-57v713h66l368 -589h3v589h56v-715z" />
    <glyph glyph-name="Odieresis" unicode="&#xd6;" horiz-adv-x="644" 
d="M449 791h-62v93h62v-93zM257 791h-62v93h62v-93zM580 236c0 -157 -112 -248 -262 -248c-146 0 -254 79 -254 236v246c0 156 102 256 259 256c153 0 257 -82 257 -237v-253zM512 230v257c0 112 -65 181 -193 181c-123 0 -187 -80 -187 -196v-243c0 -115 68 -184 191 -184
c122 0 189 72 189 185z" />
    <glyph glyph-name="Udieresis" unicode="&#xdc;" horiz-adv-x="632" 
d="M446 791h-62v93h62v-93zM254 791h-62v93h62v-93zM564 197c0 -149 -139 -209 -253 -209c-109 0 -243 56 -243 202v523h66v-511c0 -109 93 -158 187 -158c85 0 182 46 182 157v512h61v-516z" />
    <glyph glyph-name="aacute" unicode="&#xe1;" horiz-adv-x="506" 
d="M365 750l-102 -176h-49l79 176h72zM435 0h-63c-1 16 -3 41 -4 57h-2c-40 -44 -90 -68 -146 -68c-85 0 -170 42 -170 135c0 136 127 161 202 161h116v72c0 75 -44 109 -112 109c-56 0 -119 -19 -119 -85v-12h-57v8c0 100 85 136 182 136c91 0 167 -37 167 -142v-269
c0 -37 2 -69 6 -102zM368 167v70h-123c-64 0 -130 -18 -130 -107c0 -64 53 -89 107 -89c74 0 146 45 146 126z" />
    <glyph glyph-name="agrave" unicode="&#xe0;" horiz-adv-x="506" 
d="M279 574h-49l-102 176h72zM435 0h-63c-1 16 -3 41 -4 57h-2c-40 -44 -90 -68 -146 -68c-85 0 -170 42 -170 135c0 136 127 161 202 161h116v72c0 75 -44 109 -112 109c-56 0 -119 -19 -119 -85v-12h-57v8c0 100 85 136 182 136c91 0 167 -37 167 -142v-269
c0 -37 2 -69 6 -102zM368 167v70h-123c-64 0 -130 -18 -130 -107c0 -64 53 -89 107 -89c74 0 146 45 146 126z" />
    <glyph glyph-name="acircumflex" unicode="&#xe2;" horiz-adv-x="506" 
d="M363 575h-58l-56 111l-60 -111h-58l90 166h58zM435 0h-63c-1 16 -3 41 -4 57h-2c-40 -44 -90 -68 -146 -68c-85 0 -170 42 -170 135c0 136 127 161 202 161h116v72c0 75 -44 109 -112 109c-56 0 -119 -19 -119 -85v-12h-57v8c0 100 85 136 182 136c91 0 167 -37 167 -142
v-269c0 -37 2 -69 6 -102zM368 167v70h-123c-64 0 -130 -18 -130 -107c0 -64 53 -89 107 -89c74 0 146 45 146 126z" />
    <glyph glyph-name="adieresis" unicode="&#xe4;" horiz-adv-x="506" 
d="M361 612h-62v93h62v-93zM201 612h-62v93h62v-93zM435 0h-63c-1 16 -3 41 -4 57h-2c-40 -44 -90 -68 -146 -68c-85 0 -170 42 -170 135c0 136 127 161 202 161h116v72c0 75 -44 109 -112 109c-56 0 -119 -19 -119 -85v-12h-57v8c0 100 85 136 182 136
c91 0 167 -37 167 -142v-269c0 -37 2 -69 6 -102zM368 167v70h-123c-64 0 -130 -18 -130 -107c0 -64 53 -89 107 -89c74 0 146 45 146 126z" />
    <glyph glyph-name="atilde" unicode="&#xe3;" horiz-adv-x="506" 
d="M413 678c-10 -49 -32 -85 -82 -85c-26 0 -51 8 -76 15c-26 7 -53 14 -80 14c-34 0 -37 -15 -48 -39l-36 6c12 52 38 86 86 86c26 0 51 -7 75 -14c26 -8 52 -15 79 -15c29 0 34 17 45 40zM435 0h-63c-1 16 -3 41 -4 57h-2c-40 -44 -90 -68 -146 -68
c-85 0 -170 42 -170 135c0 136 127 161 202 161h116v72c0 75 -44 109 -112 109c-56 0 -119 -19 -119 -85v-12h-57v8c0 100 85 136 182 136c91 0 167 -37 167 -142v-269c0 -37 2 -69 6 -102zM368 167v70h-123c-64 0 -130 -18 -130 -107c0 -64 53 -89 107 -89
c74 0 146 45 146 126z" />
    <glyph glyph-name="aring" unicode="&#xe5;" horiz-adv-x="506" 
d="M348 666c0 -53 -45 -95 -98 -95c-68 0 -97 46 -97 89c0 50 40 95 97 95c64 0 98 -41 98 -89zM435 0h-63c-1 16 -3 41 -4 57h-2c-40 -44 -90 -68 -146 -68c-85 0 -170 42 -170 135c0 136 127 161 202 161h116v72c0 75 -44 109 -112 109c-56 0 -119 -19 -119 -85v-12h-57v8
c0 100 85 136 182 136c91 0 167 -37 167 -142v-269c0 -37 2 -69 6 -102zM301 663h1c0 27 -16 55 -52 55c-32 0 -51 -26 -51 -55c0 -30 23 -54 51 -54c29 0 51 24 51 54zM368 167v70h-123c-64 0 -130 -18 -130 -107c0 -64 53 -89 107 -89c74 0 146 45 146 126z" />
    <glyph glyph-name="ccedilla" unicode="&#xe7;" horiz-adv-x="486" 
d="M436 141c0 -77 -48 -144 -160 -152l-9 -48h13c45 0 85 -15 85 -61c0 -52 -52 -78 -115 -78c-28 0 -73 9 -96 20v36c25 -11 71 -19 94 -19c45 0 65 14 65 34c0 30 -29 33 -44 33l-52 1l18 82c-116 6 -177 79 -177 201v119c0 124 75 203 195 203c128 0 183 -71 183 -153
v-15h-58v17c0 32 -23 99 -123 99c-99 0 -133 -64 -133 -155v-114c0 -85 32 -151 132 -151s124 67 124 99v17h58v-15z" />
    <glyph glyph-name="eacute" unicode="&#xe9;" horiz-adv-x="496" 
d="M365 750l-102 -176h-49l79 176h72zM446 82c-43 -64 -105 -94 -170 -94c-124 0 -218 63 -218 204v112c0 138 85 208 203 208c115 0 185 -72 185 -201v-80h-325v-37c0 -86 53 -152 159 -152c51 0 97 33 124 68zM386 281v34c0 70 -24 145 -127 145c-96 0 -138 -67 -138 -136
v-43h265z" />
    <glyph glyph-name="egrave" unicode="&#xe8;" horiz-adv-x="496" 
d="M296 574h-49l-102 176h72zM446 82c-43 -64 -105 -94 -170 -94c-124 0 -218 63 -218 204v112c0 138 85 208 203 208c115 0 185 -72 185 -201v-80h-325v-37c0 -86 53 -152 159 -152c51 0 97 33 124 68zM386 281v34c0 70 -24 145 -127 145c-96 0 -138 -67 -138 -136v-43h265
z" />
    <glyph glyph-name="ecircumflex" unicode="&#xea;" horiz-adv-x="496" 
d="M364 575h-58l-56 111l-60 -111h-58l90 166h58zM446 82c-43 -64 -105 -94 -170 -94c-124 0 -218 63 -218 204v112c0 138 85 208 203 208c115 0 185 -72 185 -201v-80h-325v-37c0 -86 53 -152 159 -152c51 0 97 33 124 68zM386 281v34c0 70 -24 145 -127 145
c-96 0 -138 -67 -138 -136v-43h265z" />
    <glyph glyph-name="edieresis" unicode="&#xeb;" horiz-adv-x="496" 
d="M373 612h-62v93h62v-93zM213 612h-62v93h62v-93zM446 82c-43 -64 -105 -94 -170 -94c-124 0 -218 63 -218 204v112c0 138 85 208 203 208c115 0 185 -72 185 -201v-80h-325v-37c0 -86 53 -152 159 -152c51 0 97 33 124 68zM386 281v34c0 70 -24 145 -127 145
c-96 0 -138 -67 -138 -136v-43h265z" />
    <glyph glyph-name="iacute" unicode="&#xed;" horiz-adv-x="218" 
d="M238 750l-102 -176h-49l79 176h72zM140 0h-62v500h62v-500z" />
    <glyph glyph-name="igrave" unicode="&#xec;" horiz-adv-x="218" 
d="M136 574h-49l-102 176h72zM140 0h-62v500h62v-500z" />
    <glyph glyph-name="icircumflex" unicode="&#xee;" horiz-adv-x="218" 
d="M140 0h-62v500h62v-500zM225 575h-58l-56 111l-60 -111h-58l90 166h58z" />
    <glyph glyph-name="idieresis" unicode="&#xef;" horiz-adv-x="218" 
d="M220 612h-62v93h62v-93zM60 612h-62v93h62v-93zM140 0h-62v500h62v-500z" />
    <glyph glyph-name="ntilde" unicode="&#xf1;" horiz-adv-x="526" 
d="M428 678c-10 -49 -31 -85 -81 -85c-26 0 -51 8 -76 15c-26 7 -54 14 -81 14c-34 0 -37 -15 -47 -39l-36 6c12 52 38 86 85 86c26 0 52 -7 76 -14c26 -8 52 -15 79 -15c29 0 34 17 45 40zM452 0h-62v336c0 85 -46 123 -105 123c-72 0 -145 -73 -145 -163v-296h-62v500h60
v-87h3c36 60 83 99 161 99c105 0 150 -81 150 -152v-360z" />
    <glyph glyph-name="oacute" unicode="&#xf3;" 
d="M365 750l-102 -176h-49l79 176h72zM442 191c0 -129 -74 -203 -194 -203c-128 0 -190 74 -190 202v119c0 129 73 203 193 203c128 0 191 -75 191 -203v-118zM378 194v116c0 85 -25 150 -125 150c-99 0 -131 -64 -131 -155v-114c0 -85 25 -152 125 -152
c99 0 131 64 131 155z" />
    <glyph glyph-name="ograve" unicode="&#xf2;" 
d="M279 574h-49l-102 176h72zM442 191c0 -129 -74 -203 -194 -203c-128 0 -190 74 -190 202v119c0 129 73 203 193 203c128 0 191 -75 191 -203v-118zM378 194v116c0 85 -25 150 -125 150c-99 0 -131 -64 -131 -155v-114c0 -85 25 -152 125 -152c99 0 131 64 131 155z" />
    <glyph glyph-name="ocircumflex" unicode="&#xf4;" 
d="M366 575h-58l-56 111l-60 -111h-58l90 166h58zM442 191c0 -129 -74 -203 -194 -203c-128 0 -190 74 -190 202v119c0 129 73 203 193 203c128 0 191 -75 191 -203v-118zM378 194v116c0 85 -25 150 -125 150c-99 0 -131 -64 -131 -155v-114c0 -85 25 -152 125 -152
c99 0 131 64 131 155z" />
    <glyph glyph-name="odieresis" unicode="&#xf6;" 
d="M361 612h-62v93h62v-93zM201 612h-62v93h62v-93zM442 191c0 -129 -74 -203 -194 -203c-128 0 -190 74 -190 202v119c0 129 73 203 193 203c128 0 191 -75 191 -203v-118zM378 194v116c0 85 -25 150 -125 150c-99 0 -131 -64 -131 -155v-114c0 -85 25 -152 125 -152
c99 0 131 64 131 155z" />
    <glyph glyph-name="otilde" unicode="&#xf5;" 
d="M411 678c-10 -49 -31 -85 -82 -85c-26 0 -51 8 -76 15c-26 7 -53 14 -80 14c-34 0 -37 -15 -47 -39l-37 6c12 52 39 86 86 86c26 0 51 -7 75 -14c26 -8 52 -15 79 -15c29 0 34 17 45 40zM442 191c0 -129 -74 -203 -194 -203c-128 0 -190 74 -190 202v119
c0 129 73 203 193 203c128 0 191 -75 191 -203v-118zM378 194v116c0 85 -25 150 -125 150c-99 0 -131 -64 -131 -155v-114c0 -85 25 -152 125 -152c99 0 131 64 131 155z" />
    <glyph glyph-name="uacute" unicode="&#xfa;" horiz-adv-x="526" 
d="M387 750l-102 -176h-49l79 176h72zM452 0h-61v87h-3c-36 -60 -82 -99 -160 -99c-105 0 -150 81 -150 152v360h62v-336c0 -85 46 -123 105 -123c72 0 145 70 145 160v299h62v-500z" />
    <glyph glyph-name="ugrave" unicode="&#xf9;" horiz-adv-x="526" 
d="M299 574h-49l-102 176h72zM452 0h-61v87h-3c-36 -60 -82 -99 -160 -99c-105 0 -150 81 -150 152v360h62v-336c0 -85 46 -123 105 -123c72 0 145 70 145 160v299h62v-500z" />
    <glyph glyph-name="ucircumflex" unicode="&#xfb;" horiz-adv-x="526" 
d="M386 575h-58l-56 111l-60 -111h-58l90 166h58zM452 0h-61v87h-3c-36 -60 -82 -99 -160 -99c-105 0 -150 81 -150 152v360h62v-336c0 -85 46 -123 105 -123c72 0 145 70 145 160v299h62v-500z" />
    <glyph glyph-name="udieresis" unicode="&#xfc;" horiz-adv-x="526" 
d="M379 612h-62v93h62v-93zM219 612h-62v93h62v-93zM452 0h-61v87h-3c-36 -60 -82 -99 -160 -99c-105 0 -150 81 -150 152v360h62v-336c0 -85 46 -123 105 -123c72 0 145 70 145 160v299h62v-500z" />
    <glyph glyph-name="degree" unicode="&#xb0;" horiz-adv-x="372" 
d="M305 620c0 -64 -53 -115 -120 -115c-66 0 -118 51 -118 115s52 117 118 117c67 0 120 -53 120 -117zM255 620c0 40 -31 73 -70 73c-38 0 -68 -33 -68 -73s30 -71 68 -71c39 0 70 31 70 71z" />
    <glyph glyph-name="registered" unicode="&#xae;" horiz-adv-x="524" 
d="M461 580c0 -109 -80 -201 -200 -201c-124 0 -198 91 -198 201s82 200 198 200c121 0 200 -91 200 -200zM418 580c0 102 -71 165 -157 165c-87 0 -154 -62 -154 -165s71 -164 154 -164s157 62 157 164zM352 476h-44c-3 6 -4 14 -5 21l-3 34c-2 22 -15 32 -35 32h-35v-87
h-42v217h87c37 0 68 -17 68 -58c0 -29 -15 -46 -38 -53v-2c25 -7 33 -24 35 -43l2 -25c1 -12 3 -26 10 -34v-2zM301 628c0 26 -16 35 -37 35h-34v-71h36c22 0 35 13 35 36z" />
    <glyph glyph-name="copyright" unicode="&#xa9;" horiz-adv-x="946" 
d="M872 347c0 -223 -158 -409 -401 -409c-252 0 -397 186 -397 409s161 406 397 406c246 0 401 -183 401 -406zM819 347c0 223 -160 362 -348 362c-191 0 -344 -137 -344 -362c0 -226 156 -364 344 -364c190 0 348 141 348 364zM656 250c0 -116 -78 -177 -186 -177
c-105 0 -184 59 -184 175v179c0 115 74 190 188 190c110 0 182 -57 182 -168v-22h-50v16c0 80 -45 126 -135 126c-85 0 -130 -57 -130 -140v-177c0 -82 47 -131 133 -131c85 0 132 45 132 121v19h50v-11z" />
    <glyph glyph-name="trademark" unicode="&#x2122;" horiz-adv-x="628" 
d="M562 414h-45v222l-69 -159h-34l-67 158v-221h-44v303h58l71 -171l72 171h58v-303zM257 674h-80v-260h-47v260h-82v43h209v-43z" />
    <glyph glyph-name="notequal" unicode="&#x2260;" 
 />
    <glyph glyph-name="infinity" unicode="&#x221e;" 
 />
    <glyph glyph-name="plusminus" unicode="&#xb1;" 
 />
    <glyph glyph-name="lessequal" unicode="&#x2264;" 
 />
    <glyph glyph-name="greaterequal" unicode="&#x2265;" 
 />
    <glyph glyph-name="mu" unicode="&#xb5;" 
 />
    <glyph glyph-name="partialdiff" unicode="&#x2202;" 
 />
    <glyph glyph-name="summation" unicode="&#x2211;" 
 />
    <glyph glyph-name="product" unicode="&#x220f;" 
 />
    <glyph glyph-name="pi" unicode="&#x3c0;" 
 />
    <glyph glyph-name="integral" unicode="&#x222b;" 
 />
    <glyph glyph-name="Omega" unicode="&#x3a9;" 
 />
    <glyph glyph-name="logicalnot" unicode="&#xac;" horiz-adv-x="506" 
d="M440 169l-35 -34l-153 153l-153 -153l-32 33l152 152l-153 154l35 35l153 -154l152 152l33 -32l-152 -152z" />
    <glyph glyph-name="radical" unicode="&#x221a;" 
 />
    <glyph glyph-name="approxequal" unicode="&#x2248;" 
 />
    <glyph glyph-name="Delta" unicode="&#x394;" 
 />
    <glyph glyph-name="Agrave" unicode="&#xc0;" horiz-adv-x="642" 
d="M343 781h-49l-102 176h72zM606 0h-67l-77 222h-284l-76 -222h-66l256 719h62zM443 276l-123 354h-2l-121 -354h246z" />
    <glyph glyph-name="Atilde" unicode="&#xc3;" horiz-adv-x="642" 
d="M482 885c-10 -49 -31 -85 -82 -85c-26 0 -51 7 -76 14c-26 8 -53 15 -80 15c-34 0 -37 -16 -47 -39l-37 6c12 52 39 86 86 86c26 0 51 -8 75 -14c26 -8 52 -15 79 -15c29 0 34 17 45 40zM606 0h-67l-77 222h-284l-76 -222h-66l256 719h62zM443 276l-123 354h-2l-121 -354
h246z" />
    <glyph glyph-name="Otilde" unicode="&#xd5;" horiz-adv-x="644" 
d="M483 885c-10 -49 -31 -85 -82 -85c-26 0 -51 7 -76 14c-26 8 -53 15 -80 15c-34 0 -37 -16 -47 -39l-37 6c12 52 39 86 86 86c26 0 51 -8 75 -14c26 -8 52 -15 79 -15c29 0 34 17 45 40zM580 236c0 -157 -112 -248 -262 -248c-146 0 -254 79 -254 236v246
c0 156 102 256 259 256c153 0 257 -82 257 -237v-253zM512 230v257c0 112 -65 181 -193 181c-123 0 -187 -80 -187 -196v-243c0 -115 68 -184 191 -184c122 0 189 72 189 185z" />
    <glyph glyph-name="divide" unicode="&#xf7;" horiz-adv-x="596" 
d="M335 429h-74v85h74v-85zM518 295h-440v46h440v-46zM335 128h-74v85h74v-85z" />
    <glyph glyph-name="lozenge" unicode="&#x25ca;" 
 />
    <glyph glyph-name="ydieresis" unicode="&#xff;" horiz-adv-x="479" 
d="M358 612h-62v93h62v-93zM198 612h-62v93h62v-93zM449 500l-207 -579c-33 -91 -87 -121 -146 -121c-25 0 -50 0 -81 12v49c25 -7 51 -12 78 -12c45 0 72 20 88 64l35 96l-179 491h67l142 -410h3l138 410h62z" />
    <glyph glyph-name="Ydieresis" unicode="&#x178;" horiz-adv-x="560" 
d="M407 791h-62v93h62v-93zM215 791h-62v93h62v-93zM536 713l-224 -408v-305h-63v305l-225 408h71l187 -350l189 350h65z" />
    <glyph glyph-name="Euro" unicode="&#x20ac;" horiz-adv-x="702" 
d="M628 226c0 -157 -84 -238 -234 -238c-146 0 -241 79 -241 236v24h-105v52h105v102h-105v52h105v16c0 156 89 256 246 256c153 0 229 -77 229 -227v-25h-62v18c0 112 -43 176 -171 176c-123 0 -174 -80 -174 -196v-18h249v-52h-249v-102h249v-52h-249v-19
c0 -115 55 -184 178 -184c122 0 167 64 167 171v22h62v-12z" />
    <glyph glyph-name="Acircumflex" unicode="&#xc2;" horiz-adv-x="642" 
d="M438 772h-58l-56 111l-60 -111h-60l90 166h59zM606 0h-67l-77 222h-284l-76 -222h-66l256 719h62zM443 276l-123 354h-2l-121 -354h246z" />
    <glyph glyph-name="Ecircumflex" unicode="&#xca;" horiz-adv-x="560" 
d="M416 772h-58l-56 111l-60 -111h-59l90 166h59zM494 0h-412v713h412v-57h-348v-257h272v-56h-272v-286h348v-57z" />
    <glyph glyph-name="Aacute" unicode="&#xc1;" horiz-adv-x="642" 
d="M452 957l-102 -176h-49l79 176h72zM606 0h-67l-77 222h-284l-76 -222h-66l256 719h62zM443 276l-123 354h-2l-121 -354h246z" />
    <glyph glyph-name="Edieresis" unicode="&#xcb;" horiz-adv-x="560" 
d="M415 791h-62v93h62v-93zM223 791h-62v93h62v-93zM494 0h-412v713h412v-57h-348v-257h272v-56h-272v-286h348v-57z" />
    <glyph glyph-name="Egrave" unicode="&#xc8;" horiz-adv-x="560" 
d="M327 781h-49l-102 176h72zM494 0h-412v713h412v-57h-348v-257h272v-56h-272v-286h348v-57z" />
    <glyph glyph-name="Iacute" unicode="&#xcd;" horiz-adv-x="516" 
d="M386 957l-102 -176h-49l79 176h72zM446 0h-376v57h156v599h-156v57h376v-57h-156v-599h156v-57z" />
    <glyph glyph-name="Icircumflex" unicode="&#xce;" horiz-adv-x="516" 
d="M375 772h-58l-56 111l-60 -111h-60l90 166h59zM446 0h-376v57h156v599h-156v57h376v-57h-156v-599h156v-57z" />
    <glyph glyph-name="Idieresis" unicode="&#xcf;" horiz-adv-x="516" 
d="M385 791h-62v93h62v-93zM193 791h-62v93h62v-93zM446 0h-376v57h156v599h-156v57h376v-57h-156v-599h156v-57z" />
    <glyph glyph-name="Igrave" unicode="&#xcc;" horiz-adv-x="516" 
d="M279 781h-49l-102 176h72zM446 0h-376v57h156v599h-156v57h376v-57h-156v-599h156v-57z" />
    <glyph glyph-name="Oacute" unicode="&#xd3;" horiz-adv-x="644" 
d="M453 957l-102 -176h-49l79 176h72zM580 236c0 -157 -112 -248 -262 -248c-146 0 -254 79 -254 236v246c0 156 102 256 259 256c153 0 257 -82 257 -237v-253zM512 230v257c0 112 -65 181 -193 181c-123 0 -187 -80 -187 -196v-243c0 -115 68 -184 191 -184
c122 0 189 72 189 185z" />
    <glyph glyph-name="Ocircumflex" unicode="&#xd4;" horiz-adv-x="644" 
d="M439 772h-58l-56 111l-60 -111h-60l90 166h59zM580 236c0 -157 -112 -248 -262 -248c-146 0 -254 79 -254 236v246c0 156 102 256 259 256c153 0 257 -82 257 -237v-253zM512 230v257c0 112 -65 181 -193 181c-123 0 -187 -80 -187 -196v-243c0 -115 68 -184 191 -184
c122 0 189 72 189 185z" />
    <glyph glyph-name="apple" unicode="&#xf8ff;" horiz-adv-x="596" 
d="M488 294h-380v46h380v-46z" />
    <glyph glyph-name="Ograve" unicode="&#xd2;" horiz-adv-x="644" 
d="M357 781h-49l-102 176h72zM580 236c0 -157 -112 -248 -262 -248c-146 0 -254 79 -254 236v246c0 156 102 256 259 256c153 0 257 -82 257 -237v-253zM512 230v257c0 112 -65 181 -193 181c-123 0 -187 -80 -187 -196v-243c0 -115 68 -184 191 -184c122 0 189 72 189 185z
" />
    <glyph glyph-name="Uacute" unicode="&#xda;" horiz-adv-x="632" 
d="M446 957l-102 -176h-49l79 176h72zM564 197c0 -149 -139 -209 -253 -209c-109 0 -243 56 -243 202v523h66v-511c0 -109 93 -158 187 -158c85 0 182 46 182 157v512h61v-516z" />
    <glyph glyph-name="Ucircumflex" unicode="&#xdb;" horiz-adv-x="632" 
d="M433 772h-58l-56 111l-60 -111h-60l90 166h59zM564 197c0 -149 -139 -209 -253 -209c-109 0 -243 56 -243 202v523h66v-511c0 -109 93 -158 187 -158c85 0 182 46 182 157v512h61v-516z" />
    <glyph glyph-name="Ugrave" unicode="&#xd9;" horiz-adv-x="632" 
d="M353 781h-49l-102 176h72zM564 197c0 -149 -139 -209 -253 -209c-109 0 -243 56 -243 202v523h66v-511c0 -109 93 -158 187 -158c85 0 182 46 182 157v512h61v-516z" />
    <glyph glyph-name="nbspace" unicode="&#xa0;" horiz-adv-x="230" 
 />
    </font>
</defs>
</svg>
