<?xml version="1.0" standalone="no"?><!DOCTYPE svg PUBLIC "-//W3C//DTD SVG 1.1//EN" "http://www.w3.org/Graphics/SVG/1.1/DTD/svg11.dtd"><svg t="1547176218850" class="icon" style="" viewBox="0 0 2928 1024" version="1.1" xmlns="http://www.w3.org/2000/svg" p-id="10842" xmlns:xlink="http://www.w3.org/1999/xlink" width="571.875" height="200"><defs><style type="text/css"></style></defs><path d="M822.585124 824.277686L765.884298 770.115702l-54.161984 49.930579v134.558678l52.469422 47.391735 56.700826-52.469421h-71.087603v-40.621488h70.241322v-40.621487h-70.241322v-44.006612zM908.905785 827.66281v44.006611h38.082645v-47.391735l-52.469422-49.084298-49.930578 49.084298v134.558678l46.545454 44.006611 55.854546-53.315702v-42.31405h-38.082645v44.006612H880.132231V827.66281zM242.036364 1001.996694h38.928925V95.629752s-21.157025 3.385124-38.928925 18.618182v887.74876zM400.290909 46.545455c-8.46281 1.692562-19.464463 5.923967-19.464463 5.923966v393.520662L342.743802 62.624793C326.664463 67.702479 304.661157 82.935537 304.661157 82.935537v919.061157h39.775207V623.709091l37.236363 379.133884h38.082645V43.160331c-0.846281 0-10.155372 1.692562-19.464463 3.385124M181.104132 534.003306c-38.082645 14.386777-75.319008 49.084298-104.092562 82.935537-28.773554 33.85124-53.315702 90.552066-55.008264 122.710744-1.692562 32.158678 2.538843 59.239669 23.695868 74.472727 20.310744 15.233058 48.238017 26.234711 68.54876 45.699174 22.003306 21.157025 18.618182 49.930579 9.309091 64.317355-6.770248 11.001653-22.849587 18.618182-32.158678 18.618182-10.155372 0-22.003306-3.385124-22.003306-3.385124L0 1001.996694h153.17686s44.006612-31.312397 45.699173-77.01157c1.692562-54.161983-34.697521-88.013223-70.241322-108.323967-21.157025-11.847934-37.236364-6.770248-49.930579-24.542149-15.233058-21.157025-11.001653-77.857851 0-104.092562 10.155372-26.234711 24.542149-57.547107 76.165289-113.401653 35.543802-38.928926 62.624793-49.084298 62.624794-49.084297s5.077686-7.616529-36.390083 8.46281" fill="#ffffff" p-id="10843"></path><path d="M219.186777 858.975207v-44.006612c-45.699174-37.236364-83.781818-84.628099-111.709091-137.097521-3.385124 7.616529-5.923967 14.386777-9.309091 22.003306-2.538843 6.770248-5.077686 13.540496-6.770248 22.003306 33.004959 53.315702 76.165289 100.707438 127.78843 137.097521M494.228099 5.077686C233.573554 5.077686 22.849587 215.801653 22.849587 476.456198c0 53.315702 9.309091 104.092562 25.38843 151.484298 7.616529-13.540496 16.079339-27.080992 24.542148-38.928926-9.309091-35.543802-15.233058-73.626446-15.233058-112.555372 0-241.190083 195.490909-436.680992 436.680992-436.680991S930.909091 235.266116 930.909091 476.456198c0 117.633058-46.545455 225.110744-122.710744 303.814876l25.38843 24.542149c82.089256-84.628099 132.866116-200.568595 132.866116-327.510744C965.606612 215.801653 754.882645 5.077686 494.228099 5.077686" fill="#ffffff" p-id="10844"></path><path d="M447.682645 496.766942c0-4.231405 2.538843-8.46281 5.077686-11.847934 2.538843-4.231405 10.155372-11.001653 15.233057-12.694215 4.231405-1.692562 8.46281-3.385124 8.46281 0v9.309091s-3.385124 6.770248-5.923967 9.309091c-2.538843 2.538843-7.616529 5.077686-8.46281 7.616529 0 2.538843 0.846281 6.770248 3.385124 7.616529 3.385124 0.846281 8.46281-0.846281 8.46281-0.846281s-0.846281 21.157025-0.846281 31.312397c0 10.155372 0.846281 25.38843 0 30.466115 0 4.231405-0.846281 15.233058 0 18.618182 0.846281 3.385124 2.538843 4.231405 5.077686 4.231405s5.077686-2.538843 5.077686-9.309091-1.692562-27.080992 0-29.619834c1.692562-2.538843 1.692562-13.540496 1.692562-19.464463-0.846281-5.923967-2.538843-12.694215-0.846281-15.233058 1.692562-3.385124 0-6.770248 0-8.46281 0-2.538843-0.846281-5.923967 3.385124-6.770248 3.385124-1.692562 2.538843-0.846281 10.155372-1.692562 7.616529-0.846281 9.309091-2.538843 8.46281-5.923967-0.846281-3.385124-5.923967-6.770248-5.923967-10.155372 0-3.385124 4.231405-6.770248 6.770248-8.46281 2.538843-1.692562 5.077686-4.231405 8.46281-4.231405 4.231405 0 5.077686 0 5.923967-2.538843 0.846281-2.538843 1.692562-3.385124 3.385124-5.077686 1.692562-1.692562 3.385124-4.231405 2.538843-8.462809-0.846281-3.385124-0.846281-5.923967-8.46281-6.770248-7.616529-0.846281-9.309091-0.846281-16.079339 0-6.770248 0.846281-10.155372 3.385124-11.847934 2.538843-1.692562-0.846281-1.692562-3.385124-1.692562-6.770248 0-2.538843-0.846281-6.770248 0-9.309091 0-2.538843 0-5.923967 0.846281-10.155372s0-5.077686 0-9.309091c0-4.231405 1.692562-7.616529 0.846281-9.309091-0.846281-1.692562-4.231405-5.077686-7.616529-1.692562-3.385124 4.231405-3.385124 4.231405-4.231405 11.001653 0 7.616529 0.846281 29.619835 0 33.85124s-0.846281 5.077686-3.385124 6.770248c-3.385124 1.692562-6.770248 3.385124-8.46281 5.923966-2.538843 2.538843-5.077686 2.538843-6.770247 4.231405-1.692562 1.692562-3.385124 5.923967-4.231405 2.538843-0.846281-2.538843 0-5.077686 0-7.616528 0-2.538843-2.538843-2.538843-2.538843-2.538843s-7.616529 0-11.847934 11.847933c-4.231405 11.847934-2.538843 11.847934-3.385124 15.233058-0.846281 3.385124-4.231405 5.077686-3.385124 7.616529 0.846281 2.538843 5.077686 10.155372 8.46281 11.001653 0 0.846281 3.385124 0 4.231405-6.770248m36.390082-29.619835c0.846281-2.538843 5.077686-2.538843 7.616529-1.692562 2.538843 0.846281 2.538843 2.538843 0 3.385124-2.538843 0.846281-4.231405 5.077686-4.231405 5.077686s-2.538843 4.231405-3.385124 0c-0.846281-1.692562-0.846281-4.231405 0-6.770248M747.266116 495.920661c3.385124 0 11.001653 0.846281 13.540496-1.692562 2.538843-2.538843 6.770248-8.46281 7.616528-9.309091 0.846281-1.692562 5.077686-2.538843 5.077686 0.846281 0 4.231405 0.846281 18.618182 0.846281 18.618182s-1.692562 5.923967-5.077686 8.46281c-3.385124 2.538843-1.692562 4.231405-3.385123 5.923967-1.692562 0.846281-6.770248 1.692562-5.077686 5.077686 0.846281 3.385124 0.846281 5.077686 11.847933 2.538843 11.001653-2.538843 12.694215-10.155372 13.540496-14.386777 0-4.231405-0.846281-13.540496-0.846281-17.771901s0-6.770248-0.846281-11.001653c-0.846281-3.385124-4.231405-7.616529-5.923967-8.46281-0.846281-0.846281-2.538843-2.538843 0-5.923967 1.692562-3.385124 4.231405-8.46281 6.770248-11.001652 2.538843-2.538843 7.616529-4.231405 9.309091-6.770248 1.692562-1.692562 1.692562-2.538843 3.385124-4.231405 1.692562-0.846281 3.385124-2.538843 2.538843-4.231405-0.846281-1.692562-4.231405-2.538843-4.231405-2.538843s-6.770248 0.846281-11.001653 5.077686c-2.538843 3.385124-10.155372 17.771901-13.540496 22.003305-4.231405 4.231405-11.847934 14.386777-15.233057 16.92562-4.231405 2.538843-8.46281 0.846281-11.001653 5.077686-5.077686 5.077686-1.692562 6.770248 1.692562 6.770248M874.208264 523.847934c13.540496-6.770248 25.38843-16.92562 31.312397-26.234711 3.385124-5.077686 5.923967-4.231405 7.616529-10.155372 1.692562-5.077686-2.538843-6.770248-4.231405-12.694215s-3.385124-14.386777-2.538843-23.695867c0.846281-9.309091-1.692562-9.309091-3.385124-9.309091-2.538843 0-5.077686 2.538843-3.385124 11.847934 0.846281 4.231405 0.846281 6.770248 0 14.386776-0.846281 7.616529 0 14.386777 0.846281 18.618182 0.846281 3.385124 0 9.309091-2.538843 11.847934-2.538843 2.538843-11.847934 10.155372-17.771901 13.540496-5.923967 3.385124-9.309091 5.077686-17.7719 5.923967-8.46281 0-16.079339 0-23.695868-2.538843-6.770248-2.538843-2.538843-3.385124-7.616529-4.231405-1.692562 0-5.923967-3.385124-5.923967-7.616529s0-15.233058 0.846281-19.464463c1.692562-3.385124 0-5.923967 5.923967-9.309091 5.923967-3.385124 10.155372-5.923967 14.386777-9.309091 4.231405-3.385124 4.231405-5.077686 6.770248-7.616528 2.538843-2.538843 7.616529-5.923967 10.155372-8.46281 2.538843-2.538843 5.077686-5.077686 0.846281-6.770248-3.385124-1.692562-6.770248-2.538843-11.001653-0.846281-5.077686 1.692562-5.923967 5.923967-10.155372 8.46281-4.231405 2.538843-5.923967 5.923967-9.309091 5.077686-3.385124 0-3.385124-2.538843-3.385124-5.077686s-2.538843-4.231405-4.231405-2.538843c-1.692562 0.846281-5.923967 2.538843-7.616529 4.231405-1.692562 1.692562-3.385124 4.231405-3.385124 4.231405s0 2.538843 0.846281 5.923966c0.846281 3.385124 0 7.616529-2.538843 10.155372-2.538843 2.538843-7.616529 3.385124-10.155372 5.923967-2.538843 2.538843-6.770248 4.231405-0.846281 5.923967 5.923967 1.692562 8.46281-1.692562 9.309091 0.846281 0.846281 3.385124 0 28.773554 0 28.773554s-2.538843 5.923967 5.077686 9.309091c7.616529 3.385124 2.538843 3.385124 10.155372 3.385124 7.616529 0 10.155372 0.846281 18.618182 0.846281 5.923967 3.385124 14.386777 3.385124 28.773553-3.385124M523.847934 520.46281c0.846281 4.231405-0.846281 12.694215 2.538843 12.694215 8.46281-0.846281 11.001653-10.155372 11.847934-20.310744 0.846281-10.155372 0.846281-31.312397 0.846281-36.390083-0.846281-5.077686 0-6.770248-1.692562-8.46281-2.538843-0.846281-4.231405 2.538843-4.231405 2.538843s-3.385124 6.770248-2.538843 23.695868c0 11.001653-1.692562 13.540496-3.385124 16.92562-2.538843 2.538843-4.231405 5.923967-3.385124 9.309091M559.391736 451.067769c3.385124-0.846281 10.155372-4.231405 15.233057-6.770248 3.385124-0.846281 18.618182-1.692562 22.003306-0.846281 3.385124 0.846281 5.923967 6.770248 5.923967 14.386777 0.846281 7.616529 1.692562 8.46281 0.846281 16.925619 0 8.46281 1.692562 8.46281 2.538843 11.001653 0 2.538843-1.692562 14.386777 0 17.771901 0.846281 3.385124 2.538843 9.309091 1.692562 17.771901-0.846281 8.46281-5.923967 11.001653-5.923967 11.001653s-5.077686-2.538843-7.616529 0c-2.538843 2.538843 0 5.077686 1.692562 5.923967 1.692562 0.846281 1.692562 5.923967 2.538843 7.616529 0.846281 1.692562 5.923967 3.385124 7.616529 1.692562 2.538843-1.692562 5.923967-4.231405 5.923967-7.616529 0.846281-3.385124 5.077686-13.540496 5.923967-17.771901 0.846281-4.231405 2.538843-9.309091 3.385124-11.001653 0.846281-2.538843-0.846281-4.231405 0.846281-5.923967 2.538843-1.692562 1.692562-4.231405 0-6.770248-1.692562-2.538843 0-5.077686-0.846281-8.46281s-1.692562-14.386777-2.538843-19.464463c-0.846281-5.077686-0.846281-20.310744-1.692562-27.080991-0.846281-6.770248-2.538843-10.155372-5.923967-11.001653-3.385124-0.846281-11.001653 0.846281-14.386777-0.846281-2.538843-1.692562-4.231405-0.846281-7.616529-0.846281-3.385124-0.846281-5.077686-0.846281-10.155372 0.846281-5.923967 3.385124-8.46281 3.385124-16.079338 7.616529-3.385124 1.692562-10.155372 4.231405-10.155372 4.231405-3.385124 1.692562-5.923967 5.077686-3.385124 6.770248 2.538843 2.538843 6.770248 1.692562 10.155372 0.846281" fill="#ffffff" p-id="10845"></path><path d="M585.626446 539.927273c2.538843-2.538843 3.385124-0.846281 5.077686-2.538843 0.846281-1.692562 0.846281-9.309091-2.538843-11.001653-3.385124-2.538843-6.770248-3.385124-10.155372-0.846281-3.385124 2.538843-5.077686 3.385124-5.923967 1.692562-0.846281-2.538843-0.846281-2.538843 0.846281-4.231405s4.231405-5.923967 5.077686-8.46281c0.846281-2.538843 1.692562-4.231405 3.385124-2.538843 4.231405 3.385124 3.385124 10.155372 8.46281 13.540496 5.077686 3.385124 6.770248-0.846281 5.923967-3.385124-0.846281-2.538843-3.385124-3.385124-5.077686-6.770248-0.846281-3.385124 0-5.077686-2.538843-5.923967-1.692562-1.692562-4.231405-5.077686-3.385124-9.309091 0.846281-4.231405 0-4.231405 3.385124-7.616529 2.538843-3.385124 5.923967-11.001653 6.770248-12.694215 0-2.538843-3.385124-3.385124-5.077686-0.846281-1.692562 1.692562-3.385124 4.231405-4.231405 6.770248-0.846281 2.538843-4.231405 3.385124-4.231405 0-0.846281-3.385124-2.538843-9.309091-1.692562-11.847934 1.692562-3.385124 3.385124-5.077686 1.692562-5.923967-1.692562-0.846281-5.077686-0.846281-5.923967-3.385124-0.846281-2.538843-3.385124-8.46281-5.923967-10.155371-1.692562-1.692562-5.923967 0.846281-5.077686 3.385124 0.846281 2.538843 4.231405 6.770248 3.385124 7.616528-0.846281 1.692562-2.538843 2.538843-5.077685 2.538843h-5.923967s-5.923967 0-9.309091 5.923967c-1.692562 3.385124-3.385124 5.923967 1.692562 5.923967 4.231405 0 7.616529 0.846281 5.923967 4.231405-1.692562 3.385124-5.923967 4.231405-4.231405 6.770248 0.846281 2.538843 6.770248 4.231405 5.923967 6.770248-0.846281 2.538843-5.923967 8.46281-6.770248 9.309091-1.692562 0.846281-4.231405 2.538843-5.077686 4.231405-0.846281 2.538843-4.231405 6.770248-2.538843 8.46281 2.538843 1.692562 7.616529 0.846281 11.847934-2.538843 4.231405-3.385124 8.46281-5.077686 11.847933-6.770248 3.385124-1.692562 5.923967-7.616529 4.231405-7.616529-2.538843-0.846281-4.231405 0.846281-7.616528 2.538843-3.385124 1.692562-5.077686 0.846281-2.538843-3.385124 3.385124-4.231405 5.077686-5.923967 5.923966-7.616529 0.846281-2.538843 5.077686-6.770248 5.923967-6.770248 1.692562 0 4.231405 1.692562 3.385124 3.385124-0.846281 1.692562-5.923967 3.385124-3.385124 5.077686 2.538843 1.692562 4.231405-0.846281 5.077686 2.538843 0.846281 2.538843-4.231405 13.540496-7.616529 17.771901-3.385124 3.385124-5.077686 6.770248-9.30909 9.309091-4.231405 2.538843-9.309091 5.923967-11.001653 7.616529-1.692562 1.692562 0 6.770248 4.231405 5.923967 4.231405-0.846281 5.923967 0 12.694214 0.846281s5.077686 0 8.46281 1.692562c5.077686 1.692562 6.770248 1.692562 11.001653-1.692562m-19.464463-59.23967c-2.538843-0.846281 1.692562-4.231405 1.692562-4.231405s2.538843 0.846281 2.538843 2.538843c0 0.846281-1.692562 2.538843-4.231405 1.692562M579.702479 452.760331v4.231405s6.770248 4.231405 7.616529 7.616528c0 0 5.077686 2.538843 5.077686-5.077685 0-5.077686-2.538843-7.616529-6.770248-8.46281-5.077686-0.846281-5.923967-0.846281-5.923967 1.692562M669.408264 451.91405c3.385124 1.692562 4.231405 5.923967 8.46281 6.770248 4.231405 0.846281 12.694215 0 18.618182-0.846281 5.923967-0.846281 11.001653-3.385124 15.233058-5.077686 4.231405-1.692562 3.385124-4.231405 5.923967-6.770248 5.077686-4.231405 3.385124-5.923967 3.385124-8.46281 0-3.385124-5.077686-2.538843-10.155372-1.692562-5.923967 0.846281-9.309091 2.538843-11.847934 2.538843-2.538843 0.846281-5.923967-0.846281-7.616529 0-1.692562 0.846281-5.923967 0-8.46281 0-2.538843 0-5.077686 3.385124-7.616529 4.231405-2.538843 0.846281-6.770248 0-9.309091 1.692562-2.538843 3.385124 3.385124 7.616529 3.385124 7.616529M729.494215 524.694215c1.692562-1.692562-0.846281-5.923967-4.231405-5.923967s-8.46281 0-8.46281-2.538843 4.231405-9.309091 7.616529-12.694215c3.385124-3.385124 6.770248-8.46281 6.770248-11.847934 0-3.385124-3.385124-7.616529-5.923967-6.770248-2.538843 0.846281-5.923967 2.538843-7.616529 4.231405-1.692562 0.846281-4.231405 1.692562-8.46281 4.231405-3.385124 1.692562-3.385124 2.538843-8.46281 3.385124-4.231405 0.846281-5.923967 0.846281-9.309091 1.692562-3.385124 0.846281-5.077686-3.385124-8.46281-2.538843-3.385124 0.846281-6.770248 4.231405-9.309091 1.692562-2.538843-2.538843-2.538843-6.770248-1.692562-10.155372 0.846281-3.385124 5.077686-9.309091 5.077686-12.694215 0-3.385124 0.846281-2.538843 2.538843-5.077686 1.692562-2.538843 3.385124-7.616529-0.846281-6.770248-4.231405 0-11.847934 8.46281-11.847934 8.46281s-1.692562 7.616529-3.385123 14.386777c-1.692562 6.770248-4.231405 14.386777-5.923967 19.464463-7.616529 17.771901-7.616529 24.542149-22.849587 49.084298-15.233058 24.542149-21.157025 32.158678-26.234711 38.928925-5.077686 6.770248-7.616529 10.155372-10.155372 14.386777-3.385124 4.231405 0 7.616529 3.385124 5.923967 3.385124-1.692562 6.770248-10.155372 10.155372-11.001653 2.538843-0.846281 5.077686-5.923967 6.770248-7.616529 0.846281-1.692562 5.923967-6.770248 7.616529-8.46281 0.846281-1.692562 3.385124-6.770248 5.923967-11.001653 3.385124-4.231405 5.923967-8.46281 10.155372-15.233057s5.923967-13.540496 9.309091-16.92562c3.385124-4.231405 7.616529-13.540496 8.46281-15.233058 0.846281-2.538843 3.385124-7.616529 3.385124-7.616529l-3.385124 13.540496s2.538843 0.846281 4.231405 0.846281c2.538843 0 5.077686 0 6.770247 0.846281 2.538843 0.846281 6.770248-4.231405 9.309091-6.770248 2.538843-2.538843 1.692562-5.077686 0.846281-7.616529-0.846281-2.538843-3.385124-6.770248-0.846281-8.46281 2.538843-1.692562 5.923967-0.846281 9.309091-1.692562 3.385124-0.846281 5.077686-0.846281 9.309091-0.846281 4.231405 0 6.770248 0 5.077686 5.077686-2.538843 5.077686-9.309091 7.616529-9.309091 11.001653-0.846281 3.385124 0 8.46281 6.770248 7.616529 6.770248 0 6.770248-4.231405 13.540496-5.077686 6.770248 0 12.694215-2.538843 14.386777-4.231405M441.758678 820.046281v131.173554l51.62314 51.62314 59.23967-58.393388V819.2l-54.161984-49.930579-56.700826 50.77686z m71.933884 123.557025h-34.697521V824.277686h34.697521v119.32562zM576.317355 820.046281v181.950413h37.236364v-44.852892l35.543802 33.851239 38.082644-33.851239V819.2l-54.161983-49.930579-56.700827 50.77686z m71.933885 123.557025h-34.697521V824.277686h34.697521v119.32562z" fill="#ffffff" p-id="10846"></path><path d="M1509.765289 301.276033v85.47438H1438.677686V301.276033h71.087603z m-119.32562-113.401653c-2.538843 0-5.077686 0.846281-6.770248 1.692562-2.538843 1.692562-4.231405 7.616529-3.385123 17.771901V279.272727h-70.241323c-5.923967-0.846281-22.003306-2.538843-38.082644-12.694215-5.923967-3.385124-11.001653-4.231405-13.540496-2.538843-3.385124 2.538843-4.231405 6.770248-4.231405 15.233058v142.175207c0 10.155372 1.692562 16.079339 5.923967 19.464463 3.385124 3.385124 13.540496 3.385124 23.695867 1.692562 9.309091-1.692562 17.771901-4.231405 21.157025-7.616529 3.385124-3.385124 4.231405-9.309091 4.231405-18.618182v-8.46281h71.933885v135.404959c0 10.155372 1.692562 16.079339 5.077685 18.618182 2.538843 2.538843 11.847934 3.385124 21.157025 1.692561 20.310744-2.538843 32.158678-11.001653 32.158678-27.080991V407.907438h71.087603v11.847934c-0.846281 15.233058 6.770248 21.157025 20.310744 18.618182 13.540496-1.692562 26.234711-5.077686 30.466116-10.155372 5.077686-4.231405 6.770248-11.001653 6.770248-22.003306V306.353719c0-1.692562 1.692562-2.538843 5.077686-4.231405 4.231405-2.538843 7.616529-4.231405 8.46281-6.770248-9.309091-18.618182-33.004959-33.004959-61.778513-41.467768-3.385124 0.846281-5.077686 3.385124-11.001653 14.386776-4.231405 8.46281-6.770248 11.847934-8.46281 11.847934H1438.677686V211.570248c0-0.846281 0.846281-1.692562 3.385124-4.231405 14.386777-11.001653 0.846281-16.92562-35.543802-18.618182-6.770248-0.846281-13.540496-0.846281-16.079339-0.846281z m-10.155371 113.401653v85.47438h-71.933885v-74.472727c0-4.231405 0.846281-7.616529 4.231405-9.309091 1.692562-1.692562 6.770248-1.692562 14.386777-1.692562h53.315703zM1937.13719 236.958678v206.492562c-6.770248-4.231405-13.540496-8.46281-26.234711-14.386777 14.386777-32.158678-5.923967-50.77686-63.471074-55.854546v-7.616529h67.702479c5.923967 0 9.309091-0.846281 10.155372-3.385124 0.846281-2.538843-3.385124-8.46281-8.46281-12.694214-16.92562-14.386777-27.927273-22.003306-34.69752-22.003306-1.692562 0-5.077686 4.231405-10.155372 12.694215-5.923967 9.309091-10.155372 13.540496-12.694215 13.540496h-11.847934v-66.856199h68.54876c9.309091 0 13.540496-0.846281 15.233058-1.692562 1.692562-0.846281-0.846281-6.770248-5.077686-11.001653-15.233058-15.233058-26.234711-23.695868-33.004958-23.695867-2.538843 0-6.770248 4.231405-12.694215 13.540495-5.923967 8.46281-10.155372 11.847934-11.847934 11.847934h-130.327273c-5.923967 0-7.616529 2.538843-5.923967 5.077686 2.538843 1.692562 7.616529 6.770248 13.540496 6.770248h51.62314v66.856199h-52.469421c-5.077686 0-6.770248 3.385124-4.231405 5.923966 2.538843 1.692562 8.46281 5.077686 15.233058 5.077686h42.314049v84.6281H1717.950413V256.42314c-0.846281-14.386777 7.616529-21.157025 24.542149-20.310743h194.644628z m-1.692562-33.004959c-3.385124 7.616529-6.770248 11.847934-8.46281 11.847934h-201.414876c-2.538843 0-13.540496-3.385124-27.927273-11.001653-2.538843-0.846281-6.770248-3.385124-7.616529-3.385124-12.694215-6.770248-16.079339-5.923967-20.310743-4.231405-4.231405 0.846281-6.770248 6.770248-5.923967 15.233058v335.127273c-0.846281 11.001653 5.077686 14.386777 19.464463 11.001653 1.692562 0 6.770248-0.846281 9.30909-1.692562 17.771901-1.692562 28.773554-6.770248 25.38843-16.079339v-13.540496h219.186777v20.310744c-0.846281 9.309091 10.155372 11.847934 27.080992 8.46281 11.847934-1.692562 22.003306-4.231405 25.38843-6.770248 3.385124-2.538843 5.077686-6.770248 5.077686-13.540496V243.728926c0-0.846281 1.692562-3.385124 5.077685-5.923967 7.616529-5.923967 8.46281-11.847934 4.231405-17.771901-21.157025-17.771901-44.006612-27.080992-58.393388-27.927273-3.385124 1.692562-5.923967 2.538843-10.155372 11.847934z m-69.395041 207.338843c0.846281 11.847934 8.46281 21.157025 22.003306 25.38843-3.385124 8.46281-5.923967 12.694215-6.770248 12.694215h-35.543802v-66.856199c14.386777 7.616529 19.464463 16.92562 20.310744 28.773554z m71.087603 49.930578v44.852893H1717.950413v-44.852893h219.186777zM2356.892562 374.902479v122.710744h-135.404959V394.366942c0-4.231405 0-7.616529 0.846281-9.309091 0.846281-2.538843 1.692562-4.231405 3.385124-5.923967 2.538843-2.538843 8.46281-4.231405 16.079339-4.231405h115.094215z m33.85124-157.408264c-2.538843 4.231405-4.231405 6.770248-5.077686 7.616529h-294.505785c-4.231405 0-9.309091 1.692562-9.309091 6.770248 0 5.923967 12.694215 14.386777 17.7719 14.386777h115.094215C2200.330579 324.12562 2158.016529 396.905785 2090.31405 454.452893c-7.616529 6.770248-9.309091 10.155372-6.770248 11.847933 3.385124 0.846281 11.001653-1.692562 22.849586-6.770247 23.695868-11.001653 42.31405-22.849587 59.23967-38.082645v124.403306c0 5.077686 0.846281 7.616529 2.538843 8.46281 0.846281 1.692562 4.231405 1.692562 9.309091 1.692562 27.927273 0.846281 45.699174-5.077686 44.006611-18.618182v-19.464463h135.404959v20.310744c0 5.923967 0.846281 10.155372 2.538843 11.847934 1.692562 1.692562 4.231405 2.538843 9.309091 2.538843 27.080992 1.692562 45.699174-6.770248 44.852892-26.234711V392.67438c0-1.692562 2.538843-3.385124 5.923967-5.923967 5.923967-4.231405 8.46281-7.616529 10.155372-11.847934-11.001653-19.464463-32.158678-33.004959-60.08595-40.621487-3.385124 0-6.770248 5.077686-11.847934 13.540496-5.077686 8.46281-8.46281 5.923967-11.001653 5.923967h-119.32562c14.386777-22.003306 27.927273-43.160331 49.084298-90.552067 3.385124-7.616529 5.923967-13.540496 7.616529-16.925619h169.256198c5.077686 0 8.46281-1.692562 8.46281-4.231405 0-5.077686-7.616529-13.540496-12.694215-18.618182-19.464463-17.771901-32.158678-27.080992-37.236364-27.927273-4.231405 0.846281-9.309091 2.538843-21.157024 22.003306zM2614.161983 187.028099c52.469421 12.694215 69.395041 23.695868 49.084298 31.312397-5.077686 3.385124-7.616529 5.923967-8.46281 7.616529-3.385124 6.770248-7.616529 16.079339-13.540496 27.927273-9.309091 19.464463-16.079339 33.004959-19.464463 40.621487 19.464463 8.46281 27.080992 14.386777 18.618182 19.464463-3.385124 3.385124-5.077686 5.923967-5.077686 9.309091V456.991736c25.38843-14.386777 44.852893-30.466116 70.241323-57.547108V214.109091v-16.079339c0-3.385124 0.846281-5.077686 0.846281-6.770248 0.846281-2.538843 3.385124-4.231405 9.30909-3.385124 47.391736 2.538843 68.54876 9.309091 51.623141 22.003306-4.231405 4.231405-5.923967 6.770248-5.923967 9.309091v126.095868c13.540496-16.079339 27.080992-41.467769 48.238017-81.242976 5.077686-12.694215 11.001653-16.92562 17.7719-12.694214 32.158678 12.694215 48.238017 22.849587 49.084298 31.312396 0 3.385124-2.538843 5.923967-7.616529 8.46281-6.770248 4.231405-11.847934 9.309091-16.92562 14.386777-31.312397 34.697521-60.08595 63.471074-91.398347 88.859504v83.781818c-1.692562 22.003306 10.155372 33.004959 34.697521 32.158678 7.616529 0.846281 12.694215 0 20.310744-0.846281 16.92562-2.538843 29.619835-22.849587 38.928925-62.624793 1.692562-8.46281 3.385124-12.694215 5.077686-12.694215 0.846281 0 1.692562 4.231405 1.692562 11.847934 2.538843 36.390083 11.001653 56.700826 23.695868 61.778512 5.077686 4.231405 8.46281 8.46281 7.616529 11.001653-3.385124 21.157025-27.080992 33.85124-70.241323 38.082645h-45.699173c-30.466116 0-49.930579-3.385124-57.547108-11.001653-10.155372-6.770248-14.386777-22.003306-14.386776-44.006612v-69.395041c-31.312397 16.92562-50.77686 23.695868-70.241323 30.466115v83.781819c0.846281 9.309091-16.079339 16.079339-38.082644 18.618181-10.155372 2.538843-15.233058-0.846281-14.386777-11.001652v-194.644629c-19.464463 23.695868-34.697521 38.928926-51.623141 51.623141-5.923967 4.231405-9.309091 5.923967-10.155372 5.077686-0.846281-0.846281 1.692562-5.077686 6.770248-11.847934 31.312397-44.852893 55.008264-110.016529 71.087604-197.183471 1.692562-10.155372 3.385124-16.92562 5.077686-18.618182 2.538843-2.538843 5.923967-3.385124 11.001652-1.692562z" fill="#ffffff" p-id="10847"></path><path d="M2760.568595 786.195041l-0.846281 1.692562c-9.309091 32.158678-33.004959 51.62314-62.624793 51.623141-38.928926 0-65.163636-33.004959-65.163637-82.089256 0-49.084298 25.38843-80.396694 65.163637-80.396695 23.695868 0 44.006612 11.847934 55.854545 32.158678l0.846281 0.846281 44.852893-14.386777-0.846281-1.692562c-16.92562-38.928926-52.469421-61.778512-99.014876-61.778512-74.472727 0-124.403306 49.930579-124.403306 124.403306 0 76.165289 49.930579 126.942149 124.403306 126.942148 54.161983 0 94.783471-31.312397 106.631405-82.935537v-1.692562l-44.852893-12.694215z m-1189.024793 93.090909h56.700826V637.249587h-56.700826v242.036363z m247.114049-145.56033c0 25.38843 3.385124 54.161983 5.923967 77.857851v0.846281l-24.542149-48.238016-77.01157-126.942149-0.846281-0.846281h-56.700826v242.036363h53.315702V781.963636c0-22.003306-2.538843-44.852893-5.077686-66.856198-0.846281-4.231405-0.846281-8.46281-1.692562-12.694215l25.38843 48.238017 77.01157 127.788429 0.846281 0.846281h56.700827V637.249587h-53.315703v96.476033z m201.414876-101.553719c-72.780165 0-120.171901 49.084298-120.171901 124.403306 0 77.01157 47.391736 126.942149 120.171901 126.942148s120.171901-49.930579 120.171901-126.942148c0-75.319008-47.391736-124.403306-120.171901-124.403306z m0 206.492562c-38.082645 0-62.624793-32.158678-62.624793-82.089256 0-49.930579 23.695868-80.396694 62.624793-80.396695 38.928926 0 62.624793 30.466116 62.624794 80.396695s-24.542149 82.089256-62.624794 82.089256z m236.112397-201.414876h-88.859504v242.036363h56.700826v-84.628099h33.85124c65.163636 0 104.092562-30.466116 104.092562-80.396694 0-51.62314-35.543802-77.01157-105.785124-77.01157z m-1.692562 115.940496h-30.466116v-75.319009h28.773554c38.928926 0 54.161983 10.155372 54.161983 35.543802 0 27.080992-17.771901 39.775207-52.469421 39.775207z m191.259504 22.003305h93.090909v-43.16033h-93.090909v-51.623141h110.016529v-43.16033h-165.871074v242.036363h170.102479v-43.16033H2445.752066v-60.932232z m-958.836364-32.158677l-34.69752-13.540496-2.538843-0.846281c-21.157025-7.616529-38.082645-13.540496-38.082645-28.773554 0-15.233058 15.233058-24.542149 37.236364-24.542149 22.003306 0 34.697521 8.46281 41.467768 29.619835l0.846281 1.692562 46.545455-6.770248-0.846281-1.692562c-9.309091-39.775207-44.006612-66.009917-88.859504-66.009917-54.161983 0-93.93719 29.619835-93.93719 71.087603 0 37.236364 29.619835 56.700826 55.008264 66.009917l38.082645 14.386777c22.003306 8.46281 36.390083 13.540496 36.390083 29.619835 0 21.157025-20.310744 25.38843-38.082645 25.38843-27.080992 0-44.852893-14.386777-52.469422-44.006612v-1.692562l-49.930578 7.616529v1.692562c11.847934 54.161983 44.852893 80.396694 101.553719 80.396694 66.856198 0 96.476033-37.236364 96.476033-73.626446 0.846281-30.466116-16.92562-51.62314-54.161984-66.009917z" fill="#ffffff" p-id="10848"></path></svg>